<svg width="21" height="20" viewBox="0 0 21 20" fill="none" xmlns="http://www.w3.org/2000/svg">
<path opacity="0.4" d="M3.48266 11.25H0.956406H0.878906V17.5L2.73016 15.7987C4.54391 18.3412 7.51766 20 10.8789 20C15.9789 20 20.1864 16.1825 20.8014 11.25H18.2752C17.6802 14.7975 14.5952 17.5 10.8789 17.5C8.24641 17.5 5.92891 16.1425 4.59141 14.0887L7.68016 11.25H3.48266Z" fill="#6F6F6F"/>
<path opacity="0.4" d="M10.8795 0C5.77953 0 1.57203 3.8175 0.957031 8.75H3.48328C4.07828 5.2025 7.16328 2.5 10.8795 2.5C13.5908 2.5 15.967 3.93875 17.2845 6.095L14.6295 8.75H17.1295H18.2758H20.802H20.8795V2.5L19.0895 4.29C17.2833 1.69625 14.2795 0 10.8795 0Z" fill="#6F6F6F"/>
</svg>
