<svg width="35" height="35" viewBox="0 0 35 35" fill="none" xmlns="http://www.w3.org/2000/svg">
<path d="M21.5361 20.8992C18.4836 19.1113 18.2928 19.068 16.6521 18.5153C18.4093 17.3339 20.3151 14.7915 20.3151 12.5557C20.3151 8.94601 17.2973 6 13.5996 6C9.9019 6 6.89357 8.9367 6.89357 12.5463C6.89357 14.7822 8.78977 17.3339 10.5471 18.5153C8.90635 19.068 7.49454 19.7073 5.66302 20.8992C3.47215 23.038 2 25.6222 2 28.6468H3.83151C3.83151 23.3786 8.20292 19.7073 13.5996 19.7073C18.9962 19.7073 23.3676 23.3786 23.3676 28.6468H25.1992C25.1992 25.6222 23.727 23.038 21.5361 20.8992ZM13.5996 17.941C10.9013 17.941 8.10504 15.1804 8.10504 12.5463C8.10504 9.91224 10.9013 7.19194 13.5996 7.19194C16.2979 7.19194 19.0941 9.92155 19.0941 12.5557C19.0941 15.1898 16.2979 17.941 13.5996 17.941Z" fill="#3D3D3D"/>
<rect x="21.6465" y="6" width="12.3528" height="1.0294" fill="#303030"/>
<rect x="24.6465" y="9.08826" width="9.2646" height="1.0294" fill="#303030"/>
<rect x="24.6465" y="12.1764" width="9.2646" height="1.0294" fill="#303030"/>
</svg>
