<svg width="29" height="20" viewBox="0 0 29 20" fill="none" xmlns="http://www.w3.org/2000/svg">
<path d="M25.6063 0H4.16131C2.34851 0 0.878906 1.4696 0.878906 3.2824V3.5741H28.8887V3.2824C28.8887 1.4696 27.4191 0 25.6063 0Z" fill="#303030"/>
<path d="M0.878906 16.7175C0.878906 18.5303 2.34851 19.9999 4.16131 19.9999H25.6063C27.4191 19.9999 28.8887 18.5303 28.8887 16.7175V6.85645H0.878906V16.7175ZM21.0366 12.3053H23.6734C25.0952 12.3053 26.2519 13.4621 26.2519 14.8838C26.2519 16.3055 25.0952 17.4623 23.6734 17.4623H21.0366C19.6147 17.4623 18.4581 16.3055 18.4581 14.8838C18.4581 13.4621 19.6147 12.3053 21.0366 12.3053ZM4.33633 15.8211H12.247C12.7003 15.8211 13.0676 16.1884 13.0676 16.6417C13.0676 17.0949 12.7003 17.4623 12.247 17.4623H4.33633C3.88307 17.4623 3.51573 17.0949 3.51573 16.6417C3.51573 16.1884 3.88307 15.8211 4.33633 15.8211Z" fill="#303030"/>
<path d="M21.0366 15.8211H23.6735C24.1902 15.8211 24.6107 15.4007 24.6107 14.8838C24.6107 14.3671 24.1902 13.9465 23.6735 13.9465H21.0366C20.5197 13.9465 20.0994 14.3671 20.0994 14.8838C20.0994 15.4007 20.5197 15.8211 21.0366 15.8211Z" fill="#303030"/>
</svg>
