<svg width="55" height="45" viewBox="0 0 55 45" fill="none" xmlns="http://www.w3.org/2000/svg">
<path d="M44.1832 21.4301H29.3504C28.9701 21.4301 28.7528 21.6594 28.7528 22.0305V30.4148C28.7528 30.6004 28.8071 30.7533 28.9158 30.8624C29.0244 30.9716 29.1766 31.0262 29.3613 31.0262H44.1941C44.5744 31.0262 44.7917 30.7969 44.7917 30.4257V22.0415C44.7808 21.6484 44.5635 21.4301 44.1832 21.4301ZM43.5855 22.631V29.8035H29.9481V22.631H43.5855Z" fill="#303030"/>
<path d="M4.31396 18.9083H11.7358C12.1161 18.9083 12.3334 18.6791 12.3334 18.3079C12.3334 17.9258 12.1052 17.7074 11.7358 17.7074H4.31396C3.93363 17.7074 3.7163 17.9367 3.7163 18.3079C3.70543 18.6791 3.93363 18.9083 4.31396 18.9083Z" fill="#303030"/>
<path d="M16.3649 21.4301H4.31395C3.93362 21.4301 3.71629 21.6594 3.71629 22.0305C3.71629 22.4126 3.94449 22.631 4.31395 22.631H16.3649C16.7452 22.631 16.9626 22.4017 16.9626 22.0305C16.9626 21.6485 16.7452 21.4301 16.3649 21.4301Z" fill="#303030"/>
<path d="M54.2347 9.75982L54.2238 9.73799C53.6262 8.96288 52.8873 8.54804 51.9527 8.4607L49.4317 8.15502V3.3952C49.4317 1.51747 47.9104 0 46.0522 0H3.37948C2.48843 0 1.62998 0.349345 0.988852 0.99345C0.347728 1.63755 0 2.5 0 3.3952V33.2096C0 34.7052 0.999718 36.0371 2.42323 36.4629L2.66229 36.5393L2.65143 36.7904C2.60796 38.5153 3.92281 39.9891 5.62885 40.1528L48.4537 45H48.8123C50.5075 45 52.0288 43.7118 52.2027 42.1288L54.9845 12.2162C55.0714 11.3319 54.7889 10.4148 54.2347 9.75982ZM1.20618 4.66157V3.3952C1.20618 2.18341 2.18417 1.20087 3.39035 1.20087H46.0414C47.2476 1.20087 48.2255 2.18341 48.2255 3.3952V4.65065H1.20618V4.66157ZM46.0414 35.4039H3.37948C2.1733 35.4039 1.19532 34.4214 1.19532 33.2096V13.3188H48.2147V33.2096C48.2147 34.4214 47.2367 35.4039 46.0414 35.4039ZM46.0414 36.6048C47.9104 36.6048 49.4208 35.0764 49.4208 33.2096V9.27948L51.8875 9.49782H51.8984C52.4309 9.50873 52.9851 9.80349 53.3437 10.2838C53.7022 10.7642 53.8761 11.4083 53.7783 11.9214V11.9323L50.9965 41.8122C50.9422 42.3908 50.6596 42.9148 50.2032 43.2969C49.8012 43.6245 49.3231 43.7991 48.8015 43.7991C48.7363 43.7991 48.6602 43.7991 48.6059 43.7882L5.84618 38.941C4.82473 38.8428 4.00974 38.0131 3.89021 36.976L3.84674 36.6157H46.0414V36.6048ZM1.20618 12.107V5.86245H48.2255V12.107H1.20618Z" fill="#303030"/>
</svg>
