<svg width="21" height="20" viewBox="0 0 21 20" fill="none" xmlns="http://www.w3.org/2000/svg">
<path d="M10.1586 0C4.54821 0 0 4.47727 0 9.99983C0 15.5224 4.54821 20 10.1586 20C15.7689 20 20.3175 15.5224 20.3175 9.99983C20.3175 4.47727 15.7689 0 10.1586 0ZM14.5504 11.9018H10.2436C10.229 11.9018 10.2155 11.8983 10.201 11.8978C10.1866 11.8985 10.1731 11.9018 10.1585 11.9018C9.77049 11.9018 9.4559 11.5921 9.4559 11.2102V4.15C9.4559 3.76806 9.77049 3.45839 10.1585 3.45839C10.5465 3.45839 10.8611 3.76806 10.8611 4.15V10.5186H14.5501C14.9381 10.5186 15.2527 10.8282 15.2527 11.2102C15.2527 11.5921 14.9384 11.9018 14.5504 11.9018Z" fill="#FF7373"/>
</svg>
