<svg width="30" height="20" viewBox="0 0 30 20" fill="none" xmlns="http://www.w3.org/2000/svg">
<path opacity="0.4" d="M1.87741 13.3256V1.21821C1.87741 0.545425 2.42279 0 3.09562 0H15.1968C15.8696 0 16.415 0.545425 16.415 1.21821V13.3257C16.415 13.5499 16.2332 13.7317 16.0089 13.7317H2.28348C2.05917 13.7317 1.87741 13.5499 1.87741 13.3256ZM11.6495 17.4734C11.6495 18.8688 10.5182 20 9.12287 20C7.72751 20 6.59625 18.8688 6.59625 17.4734C6.59625 16.0779 7.72751 14.9467 9.12287 14.9467C10.5182 14.9467 11.6495 16.0779 11.6495 17.4734ZM10.3861 17.4734C10.3861 16.7757 9.82053 16.2101 9.12283 16.2101C8.42512 16.2101 7.85947 16.7757 7.85947 17.4734C7.85947 18.1711 8.42512 18.7367 9.12283 18.7367C9.82053 18.7367 10.3861 18.1711 10.3861 17.4734ZM6.9467 14.9467H1.28498C1.06071 14.9467 0.878906 15.1285 0.878906 15.3528V16.5847C0.878906 16.809 1.06071 16.9908 1.28498 16.9908H5.82312C5.9416 16.1778 6.35194 15.4597 6.9467 14.9467ZM24.8692 17.4734C24.8692 18.8688 23.7379 20 22.3425 20C20.9471 20 19.8159 18.8688 19.8159 17.4734C19.8159 16.0779 20.9471 14.9467 22.3425 14.9467C23.7379 14.9467 24.8692 16.0779 24.8692 17.4734ZM23.6059 17.4734C23.6059 16.7757 23.0402 16.2101 22.3425 16.2101C21.6448 16.2101 21.0792 16.7757 21.0792 17.4734C21.0792 18.1711 21.6448 18.7367 22.3425 18.7367C23.0402 18.7367 23.6059 18.1711 23.6059 17.4734ZM29.3359 15.3528V16.5847C29.3359 16.809 29.1541 16.9908 28.9298 16.9908H25.6422C25.4071 15.3781 24.0191 14.1346 22.3426 14.1346C20.6658 14.1346 19.2778 15.3782 19.0427 16.9908H12.4226C12.3041 16.1779 11.8938 15.4597 11.299 14.9467H17.576V3.33184C17.576 2.88331 17.9397 2.5197 18.3882 2.5197H22.2217C23.3011 2.5197 24.31 3.05587 24.914 3.95045L27.3854 7.61085C27.7479 8.14776 27.9416 8.78079 27.9416 9.42865V14.9467H28.9298C29.1541 14.9467 29.3359 15.1285 29.3359 15.3528ZM25.2165 7.70459L23.2403 4.89641C23.1642 4.78835 23.0403 4.72404 22.9082 4.72404H19.8256C19.6014 4.72404 19.4195 4.90585 19.4195 5.13011V7.93829C19.4195 8.1626 19.6013 8.34436 19.8256 8.34436H24.8845C25.2134 8.34436 25.4058 7.97363 25.2165 7.70459Z" fill="#6F6F6F"/>
</svg>
