<svg width="63" height="53" viewBox="0 0 63 53" fill="none" xmlns="http://www.w3.org/2000/svg">
<path d="M58.2562 29.6553L57.842 29.5937L55.4952 20.3495L55.7588 20.103C56.3863 19.5114 56.7251 18.7226 56.7251 17.8721C56.7251 16.1712 55.3195 14.7907 53.5877 14.7907H44.8028C43.0709 14.7907 41.6653 16.1712 41.6653 17.8721V34.98L40.8245 34.6842C40.4857 34.5609 40.1343 34.5116 39.7829 34.5116H35.3904V18.4884H37.2729C37.6243 18.4884 37.9004 18.2172 37.9004 17.8721V10.4767C37.9004 10.1316 37.6243 9.86047 37.2729 9.86047H30.245L30.998 8.87442C31.7384 7.91302 32.1275 6.75442 32.1275 5.54651C32.1275 2.48977 29.5924 0 26.4801 0C23.807 0 21.4727 1.87349 20.9456 4.44953L20.8327 5.00419L20.2679 4.94256C20.2303 4.94256 20.1926 4.94256 20.155 4.94256L19.5651 4.95488L19.4647 4.44953C18.9377 1.87349 16.6034 0 13.9303 0C10.8179 0 8.28287 2.48977 8.28287 5.54651C8.28287 6.75442 8.67191 7.9007 9.41235 8.87442L10.1653 9.86047H3.13745C2.78606 9.86047 2.50996 10.1316 2.50996 10.4767V17.8721C2.50996 18.2172 2.78606 18.4884 3.13745 18.4884H5.01992V34.5116H3.13745C1.40558 34.5116 0 35.8921 0 37.593V42.5233C0 44.2242 1.40558 45.6046 3.13745 45.6046H8.28287V46.2209C8.28287 49.9556 11.3827 53 15.1853 53C18.9879 53 22.0877 49.9556 22.0877 46.2209V45.6046H46.6853V46.2209C46.6853 49.9556 49.7851 53 53.5877 53C57.3902 53 60.49 49.9556 60.49 46.2209C60.49 46.184 60.49 46.1347 60.49 46.0977L60.4775 45.58L60.9042 45.4321C62.1592 45.0007 63 43.8298 63 42.5233V35.1279C63 32.4286 60.9544 30.0744 58.2562 29.6553ZM36.6454 11.093V17.2558H25.8526V11.093H36.6454ZM34.1355 18.4884V34.5116H25.8526V18.4884H34.1355ZM22.163 4.74535C22.552 2.71163 24.3717 1.23256 26.4801 1.23256C28.9022 1.23256 30.8725 3.16767 30.8725 5.54651C30.8725 7.92535 28.9022 9.86047 26.4801 9.86047C26.4424 9.86047 26.4048 9.86047 26.3671 9.86047L25.84 9.84814L25.7396 9.36744C25.3757 7.62954 24.1835 6.16279 22.5269 5.42326L22.0751 5.22605L22.163 4.74535ZM20.1173 6.16279H20.1675L21.3472 6.3107L21.3974 6.32302C22.7779 6.70512 23.8823 7.71581 24.3592 9.03465L24.6604 9.86047H15.7877L16.0888 9.03465C16.6787 7.34605 18.3102 6.19977 20.1173 6.16279ZM15.8127 17.2558V11.093H24.5976V17.2558H15.8127ZM24.5976 18.4884V34.5116H15.8127V18.4884H24.5976ZM9.53785 5.54651C9.53785 3.16767 11.5082 1.23256 13.9303 1.23256C16.0386 1.23256 17.8584 2.71163 18.2474 4.74535L18.3353 5.22605L17.8835 5.42326C16.2394 6.15047 15.0347 7.62954 14.6707 9.36744L14.5703 9.84814L14.0432 9.86047C14.0056 9.86047 13.9679 9.86047 13.9303 9.86047C11.5082 9.86047 9.53785 7.92535 9.53785 5.54651ZM3.76494 17.2558V11.093H14.5578V17.2558H3.76494ZM14.5578 18.4884V34.5116H6.2749V18.4884H14.5578ZM15.1853 51.7674C12.0729 51.7674 9.53785 49.2777 9.53785 46.2209C9.53785 43.1642 12.0729 40.6744 15.1853 40.6744C18.2976 40.6744 20.8327 43.1642 20.8327 46.2209C20.8327 49.2777 18.2976 51.7674 15.1853 51.7674ZM41.6653 44.3721H21.8367L21.6861 43.9654C20.7072 41.266 18.0968 39.4419 15.1727 39.4419C12.2486 39.4419 9.63825 41.2537 8.65936 43.9654L8.53386 44.3721H3.13745C2.09582 44.3721 1.25498 43.5463 1.25498 42.5233V37.593C1.25498 36.57 2.09582 35.7442 3.13745 35.7442H39.7829C40.8245 35.7442 41.6653 36.57 41.6653 37.593V44.3721ZM42.9203 17.8721C42.9203 16.8491 43.7612 16.0233 44.8028 16.0233H53.5877C54.6293 16.0233 55.4701 16.8491 55.4701 17.8721C55.4701 18.8951 54.6293 19.7209 53.5877 19.7209H42.9203V17.8721ZM42.9203 20.9535H54.3532L56.5494 29.5814H43.8114V29.652C44.0498 29.4178 44.0498 29.0234 43.8114 28.7769C43.5729 28.5427 43.1713 28.5427 42.9203 28.7769V28.7063V20.9535ZM53.5877 51.7674C50.4753 51.7674 47.9402 49.2777 47.9402 46.2209C47.9402 43.1642 50.4753 40.6744 53.5877 40.6744C56.7 40.6744 59.2351 43.1642 59.2351 46.2209C59.2351 49.2777 56.7 51.7674 53.5877 51.7674ZM57.3526 35.7442H61.745V42.5233C61.745 43.1149 61.4564 43.6695 60.9669 44.0147L60.3143 44.483L60.0131 43.7435C58.9841 41.1674 56.3988 39.4419 53.5877 39.4419C50.6635 39.4419 48.0532 41.2537 47.0743 43.9654L46.9363 44.3721H42.9203V30.814H57.3526C59.21 30.814 60.8665 31.9726 61.494 33.6858L61.7952 34.5116H57.3526C57.0012 34.5116 56.7251 34.7828 56.7251 35.1279C56.7251 35.473 57.0012 35.7442 57.3526 35.7442Z" fill="#303030"/>
</svg>
