<svg width="19" height="19" viewBox="0 0 19 19" fill="none" xmlns="http://www.w3.org/2000/svg">
<g opacity="0.6">
<path d="M6.98292 3.67968C6.98292 4.15848 6.98292 6.29559 6.98292 6.29559H5.06641V9.49435H6.98292V18.9999H10.9198V9.49461H13.5617C13.5617 9.49461 13.8091 7.96083 13.9291 6.2838C13.5852 6.2838 10.9347 6.2838 10.9347 6.2838C10.9347 6.2838 10.9347 4.42287 10.9347 4.09668C10.9347 3.76979 11.364 3.33008 11.7882 3.33008C12.2117 3.33008 13.1054 3.33008 13.9332 3.33008C13.9332 2.89457 13.9332 1.38977 13.9332 1.14264e-08C12.8281 1.14264e-08 11.5709 1.14264e-08 11.0168 1.14264e-08C6.8856 -0.00022086 6.98292 3.20171 6.98292 3.67968Z" fill="#303030"/>
</g>
</svg>
