<svg width="21" height="19" viewBox="0 0 21 19" fill="none" xmlns="http://www.w3.org/2000/svg">
<path d="M10.3241 18.1276C10.1374 18.1276 9.9592 18.0515 9.83218 17.9177L1.90454 9.56001C1.9025 9.55786 1.90046 9.55571 1.89847 9.55355C0.936173 8.51137 0.40625 7.13022 0.40625 5.66448C0.40625 4.19868 0.936173 2.81759 1.89847 1.77545L2.01894 1.64502C2.99848 0.584239 4.30634 0 5.70167 0C7.09699 0 8.40491 0.584239 9.3845 1.64507L10.3241 2.66273L11.2638 1.64512C12.2433 0.584291 13.5512 5.25323e-05 14.9466 5.25323e-05C16.3419 5.25323e-05 17.6498 0.584291 18.6294 1.64517L18.7497 1.7753C19.7122 2.81769 20.2421 4.19879 20.2421 5.66453C20.2421 7.13027 19.7121 8.51142 18.7499 9.55355C18.7479 9.55581 18.7458 9.55796 18.7438 9.56012L10.8161 17.9178C10.6891 18.0515 10.5109 18.1276 10.3241 18.1276Z" fill="#FF7373"/>
</svg>
