<svg width="37" height="32" viewBox="0 0 37 32" fill="none" xmlns="http://www.w3.org/2000/svg">
<path d="M33.8046 2.97082C31.9074 1.06487 29.3957 0.0231494 26.7151 0.0231494C24.0344 0.0231494 21.5151 1.07258 19.6179 2.97854L18.6271 3.97396L17.6208 2.96311C15.7237 1.05715 13.1966 0 10.516 0C7.84302 0 5.32367 1.04943 3.43416 2.94767C1.53697 4.85363 0.492361 7.38462 0.500042 10.0776C0.500042 12.7707 1.55233 15.2939 3.44952 17.1999L17.8743 31.6913C18.074 31.892 18.3429 32 18.604 32C18.8652 32 19.134 31.8997 19.3337 31.6991L33.7892 17.2308C35.6864 15.3248 36.731 12.7938 36.731 10.1008C36.7387 7.40776 35.7018 4.87678 33.8046 2.97082ZM32.3298 15.7569L18.604 29.4922L4.9089 15.7338C3.40344 14.2214 2.57389 12.2151 2.57389 10.0776C2.57389 7.9402 3.39576 5.93393 4.90122 4.42923C6.399 2.92452 8.39605 2.09115 10.516 2.09115C12.6436 2.09115 14.6483 2.92452 16.1538 4.43694L17.8897 6.18085C18.2968 6.58982 18.9497 6.58982 19.3567 6.18085L21.0773 4.45238C22.5827 2.93996 24.5875 2.10658 26.7074 2.10658C28.8273 2.10658 30.8244 2.93996 32.3298 4.44466C33.8353 5.95708 34.6572 7.96335 34.6572 10.1008C34.6648 12.2382 33.8353 14.2445 32.3298 15.7569Z" fill="white"/>
</svg>
