<svg width="35" height="35" viewBox="0 0 35 35" fill="none" xmlns="http://www.w3.org/2000/svg">
<path d="M18.107 5C12.8493 5 8.35654 8.29972 6.66961 12.9335L5.41569 10.6953C5.3439 10.563 5.23399 10.4554 5.10023 10.3865C4.96648 10.3175 4.81507 10.2904 4.66569 10.3086C4.54153 10.3226 4.42284 10.3675 4.32042 10.439C4.21799 10.5106 4.13507 10.6067 4.07919 10.7184C4.0233 10.8302 3.99623 10.9542 4.00042 11.079C4.00462 11.2039 4.03994 11.3258 4.1032 11.4336L6.16568 15.1132C6.25993 15.2831 6.41642 15.4098 6.60221 15.4667C6.788 15.5235 6.98859 15.506 7.16175 15.4179L10.8297 13.5429C10.9216 13.5008 11.004 13.4405 11.072 13.3658C11.14 13.291 11.1922 13.2032 11.2255 13.1078C11.2587 13.0123 11.2723 12.9112 11.2655 12.8103C11.2587 12.7095 11.2315 12.611 11.1857 12.5209C11.1398 12.4309 11.0763 12.351 10.9988 12.2861C10.9213 12.2212 10.8315 12.1726 10.7348 12.1433C10.638 12.1139 10.5364 12.1045 10.4359 12.1154C10.3354 12.1264 10.2382 12.1575 10.15 12.207L8.15786 13.2265C9.69291 9.2963 13.5629 6.49999 18.107 6.49999C24.0036 6.49999 28.7593 11.1976 28.7593 16.9999C28.7593 22.755 24.0767 27.4241 18.2477 27.4999C18.1491 27.5013 18.0517 27.522 17.9611 27.5611C17.8706 27.6001 17.7886 27.6566 17.7199 27.7273C17.6512 27.7981 17.5971 27.8816 17.5607 27.9733C17.5244 28.065 17.5065 28.1629 17.508 28.2615C17.5095 28.3601 17.5305 28.4574 17.5697 28.5479C17.6088 28.6384 17.6655 28.7203 17.7363 28.7889C17.8072 28.8575 17.8909 28.9114 17.9826 28.9476C18.0744 28.9838 18.1723 29.0016 18.2709 28.9999C24.8937 28.9138 30.2593 23.5702 30.2593 16.9999C30.2593 10.3759 24.8035 5 18.107 5ZM18.1773 10.2383C17.9909 10.2587 17.8189 10.3483 17.6953 10.4893C17.5717 10.6303 17.5053 10.8125 17.5094 11V16.9999C17.5093 17.1124 17.5346 17.2235 17.5832 17.3249C17.6319 17.4264 17.7028 17.5155 17.7906 17.5859L21.5406 20.5859C21.6175 20.6474 21.7059 20.6932 21.8005 20.7206C21.8952 20.7481 21.9943 20.7566 22.0922 20.7457C22.1901 20.7348 22.285 20.7047 22.3713 20.6572C22.4576 20.6097 22.5337 20.5456 22.5953 20.4687C22.6568 20.3917 22.7026 20.3034 22.7301 20.2087C22.7575 20.1141 22.766 20.015 22.7551 19.9171C22.7442 19.8191 22.7142 19.7243 22.6666 19.638C22.6191 19.5516 22.555 19.4755 22.4781 19.414L19.0094 16.6366V11C19.0117 10.8932 18.9911 10.7872 18.9492 10.689C18.9072 10.5908 18.8447 10.5027 18.766 10.4306C18.6872 10.3585 18.5939 10.304 18.4924 10.2708C18.3909 10.2377 18.2835 10.2266 18.1773 10.2383Z" fill="#303030"/>
</svg>
