<svg width="35" height="35" viewBox="0 0 35 35" fill="none" xmlns="http://www.w3.org/2000/svg">
<path d="M14.7183 26.4673C14.7183 27.0657 15.2053 27.5527 15.8037 27.5527H28.4673C29.0657 27.5527 29.5527 27.0657 29.5527 26.4673V7.53271C29.5527 6.93427 29.0657 6.44727 28.4673 6.44727H15.8037C15.2053 6.44727 14.7183 6.93427 14.7183 7.53271V13.1304H13.271V7.53271C13.271 6.13647 14.4075 5 15.8037 5H28.4673C29.8635 5 31 6.13647 31 7.53271V26.4673C31 27.8635 29.8635 29 28.4673 29H15.8037C14.4075 29 13.271 27.8635 13.271 26.4673V20.8696H14.7183V26.4673ZM9.88114 11.2866L10.9044 12.3098L6.93813 16.2764H23.6436V17.7236H6.93741L10.9044 21.6906L9.88114 22.7138L4.1677 17.0004L9.88114 11.2866Z" fill="black"/>
</svg>
