<svg width="19" height="24" viewBox="0 0 19 24" fill="none" xmlns="http://www.w3.org/2000/svg">
<path d="M9.7288 0C4.6874 0 0.585938 3.89916 0.585938 8.69185C0.585938 14.6397 8.7679 23.3716 9.11625 23.7404C9.44346 24.0868 10.0147 24.0862 10.3413 23.7404C10.6897 23.3716 18.8717 14.6397 18.8717 8.69185C18.8716 3.89916 14.7701 0 9.7288 0ZM9.7288 13.065C7.19234 13.065 5.12884 11.1032 5.12884 8.69185C5.12884 6.28051 7.19239 4.31879 9.7288 4.31879C12.2652 4.31879 14.3287 6.28055 14.3287 8.6919C14.3287 11.1032 12.2652 13.065 9.7288 13.065Z" fill="#FF7373"/>
</svg>
