<svg width="19" height="19" viewBox="0 0 19 19" fill="none" xmlns="http://www.w3.org/2000/svg">
<g opacity="0.6">
<path d="M15.0298 1.947C13.722 0.691488 11.912 0 9.93348 0C6.91113 0 5.05224 1.23891 4.02506 2.27816C2.75913 3.55892 2.0332 5.25952 2.0332 6.94399C2.0332 9.05896 2.91785 10.6823 4.3993 11.2862C4.49876 11.327 4.59883 11.3475 4.69694 11.3475C5.00947 11.3475 5.25711 11.143 5.3429 10.815C5.3929 10.6268 5.50878 10.1625 5.55916 9.96095C5.66701 9.56293 5.57987 9.37149 5.34468 9.09432C4.9162 8.58735 4.71667 7.98784 4.71667 7.20762C4.71667 4.89012 6.44233 2.42707 9.64068 2.42707C12.1784 2.42707 13.7549 3.86943 13.7549 6.19122C13.7549 7.65638 13.4393 9.01325 12.8661 10.0121C12.4677 10.7061 11.7673 11.5333 10.692 11.5333C10.227 11.5333 9.80932 11.3423 9.54575 11.0093C9.29677 10.6945 9.21472 10.2879 9.31485 9.86407C9.42797 9.38522 9.58222 8.88573 9.7315 8.40283C10.0038 7.52089 10.2611 6.6879 10.2611 6.02332C10.2611 4.88656 9.5623 4.12276 8.52231 4.12276C7.20061 4.12276 6.16516 5.46517 6.16516 7.17888C6.16516 8.01934 6.38853 8.64796 6.48964 8.88934C6.32314 9.5948 5.33358 13.7889 5.14588 14.5798C5.03735 15.0415 4.38355 18.688 5.4657 18.9787C6.68157 19.3054 7.76838 15.754 7.87899 15.3526C7.96864 15.0263 8.28234 13.7921 8.47457 13.0335C9.06152 13.5989 10.0066 13.9811 10.9262 13.9811C12.6597 13.9811 14.2188 13.201 15.3161 11.7846C16.3804 10.4108 16.9665 8.49604 16.9665 6.39327C16.9665 4.74936 16.2606 3.12873 15.0298 1.947Z" fill="#303030"/>
</g>
</svg>
