<svg width="33" height="32" viewBox="0 0 33 32" fill="none" xmlns="http://www.w3.org/2000/svg">
<path d="M32.3791 29.7274L24.4984 22.0343C26.4518 19.7094 27.6293 16.7314 27.6293 13.4857C27.6293 6.04082 21.4411 0 13.8146 0C6.18146 0 0 6.04082 0 13.4857C0 20.9306 6.18146 26.9714 13.8146 26.9714C17.1395 26.9714 20.1834 25.8286 22.565 23.9216L30.4457 31.6082C30.9809 32.1306 31.8439 32.1306 32.3791 31.6082C32.9143 31.0922 32.9143 30.2433 32.3791 29.7274ZM13.8146 24.2873C7.70676 24.2873 2.74286 19.4416 2.74286 13.4857C2.74286 7.5298 7.70676 2.67755 13.8146 2.67755C19.9158 2.67755 24.8864 7.5298 24.8864 13.4857C24.8864 19.4416 19.9158 24.2873 13.8146 24.2873Z" fill="white"/>
</svg>
