<svg width="27" height="32" viewBox="0 0 27 32" fill="none" xmlns="http://www.w3.org/2000/svg">
<path d="M26.7177 27.6614L24.8416 7.02822C24.8014 6.57014 24.4061 6.22331 23.9438 6.22331H20.0845C20.0309 2.78119 17.1499 0 13.6122 0C10.0745 0 7.19345 2.78119 7.13985 6.22331H3.28056C2.81155 6.22331 2.42294 6.57014 2.38274 7.02822L0.5067 27.6614C0.5067 27.6875 0.5 27.7137 0.5 27.7399C0.5 30.0892 2.70435 32 5.41791 32H21.8065C24.52 32 26.7244 30.0892 26.7244 27.7399C26.7244 27.7137 26.7244 27.6875 26.7177 27.6614ZM13.6122 1.76687C16.1515 1.76687 18.2219 3.75624 18.2755 6.22331H8.94889C9.00249 3.75624 11.0728 1.76687 13.6122 1.76687ZM21.8065 30.2331H5.41791C3.71607 30.2331 2.33584 29.1337 2.30904 27.7791L4.10468 7.99673H7.13315V10.6798C7.13315 11.1706 7.53516 11.5632 8.03767 11.5632C8.54018 11.5632 8.94219 11.1706 8.94219 10.6798V7.99673H18.2755V10.6798C18.2755 11.1706 18.6775 11.5632 19.18 11.5632C19.6825 11.5632 20.0845 11.1706 20.0845 10.6798V7.99673H23.113L24.9153 27.7791C24.8885 29.1337 23.5016 30.2331 21.8065 30.2331Z" fill="white"/>
</svg>
