<svg width="122" height="9" viewBox="0 0 122 9" fill="none" xmlns="http://www.w3.org/2000/svg">
<path d="M15.6936 1.96168C16.0485 1.96168 16.3948 1.96168 16.7497 1.96168C16.9747 1.96168 17.1998 1.97124 17.4075 1.93302C17.4249 1.92984 17.4422 1.92983 17.4508 1.92983C18.1693 1.94576 18.8791 1.8757 19.6062 1.89162C19.6235 1.89162 19.6322 1.89799 19.6755 1.90754C19.2773 1.92347 18.9137 1.96805 18.5328 1.95531C18.3943 1.95213 18.2472 1.95531 18.1 1.96168C18.0481 1.96486 17.9962 1.98397 17.9529 1.99352C17.9962 2.04129 18.1953 2.02219 18.1606 2.08269C18.1606 2.08587 18.2472 2.09543 18.2905 2.09543C18.5934 2.09861 18.8964 2.09861 19.208 2.09861C19.2427 2.09861 19.2773 2.09861 19.3032 2.09861C20.1602 2.03811 21.0258 2.06995 21.8914 2.0604C22.1165 2.05722 22.3329 2.05085 22.558 2.06677C22.4368 2.19096 22.3762 2.21007 22.0905 2.19733C21.9693 2.19097 21.8568 2.16549 21.7183 2.18459C21.6231 2.20051 21.5019 2.19733 21.3894 2.19733C21.2595 2.20052 21.1297 2.19733 21.0085 2.2037C20.9046 2.21007 20.8008 2.23873 20.6882 2.21962C20.4459 2.29924 20.091 2.24828 19.8486 2.32153C19.3379 2.33426 18.8704 2.42343 18.3511 2.42662C18.3078 2.42662 18.2472 2.42661 18.2126 2.43298C17.9875 2.4903 17.7192 2.47119 17.4681 2.49349C17.1046 2.52533 16.7324 2.50623 16.3775 2.55081C16.2909 2.56355 16.1784 2.56355 16.0918 2.55399C15.7542 2.5126 15.4253 2.55081 15.1137 2.58584C14.802 2.61768 14.4991 2.64316 14.1701 2.63361C14.0922 2.63042 14.0143 2.63679 13.8239 2.63997C14.1095 2.68137 14.3 2.66545 14.4731 2.66863C14.6635 2.67182 14.854 2.66227 15.0358 2.67501C15.0444 2.71004 15.0011 2.72596 14.9319 2.72914C14.551 2.74188 14.1788 2.78327 13.7893 2.77372C13.5988 2.77054 13.4084 2.77054 13.2266 2.7992C13.0881 2.82149 12.9496 2.7992 12.8111 2.78328C12.7159 2.77372 12.5774 2.75461 12.5514 2.82149C12.5514 2.82786 12.5082 2.83741 12.4822 2.8406C12.0321 2.87563 11.5819 2.91702 11.1491 2.98071C10.9068 3.01574 10.6298 3.02212 10.3441 3.04122C10.6644 3.09854 10.9414 3.15267 11.3742 3.13038C11.2097 3.17496 11.1318 3.19726 11.0193 3.22592C11.3915 3.25458 11.7378 3.29598 12.0927 3.26732C12.2571 3.25458 12.4043 3.25458 12.5601 3.26732C12.664 3.27687 12.7852 3.26731 12.8977 3.27368C12.9756 3.27687 13.0448 3.28961 13.1314 3.29598C13.1227 3.34375 13.1054 3.38196 13.1141 3.42336C13.1227 3.4552 13.166 3.48704 13.192 3.52207C13.0968 3.54437 13.0189 3.56347 12.941 3.5794C13.0275 3.65582 13.0622 3.66856 13.2007 3.6399C13.4084 3.5985 13.6248 3.58576 13.8499 3.59213C13.9451 3.59532 14.0403 3.59214 14.1355 3.58895C14.4212 3.58577 14.6982 3.58576 14.9492 3.65901C15.1396 3.71633 15.382 3.73225 15.633 3.72906C15.8927 3.72588 16.1437 3.72907 16.4034 3.72589C16.5419 3.72589 16.6545 3.73862 16.7497 3.77683C16.9488 3.86281 17.2258 3.89147 17.5114 3.90421C17.7192 3.91376 17.9269 3.92332 18.126 3.94242C18.3684 3.96471 18.6194 3.98064 18.8098 4.05707C18.9224 4.10483 19.0955 4.13031 19.234 4.16534C19.2426 4.2131 19.1734 4.23858 19.0695 4.24495C18.8185 4.26087 18.5761 4.29909 18.3164 4.29272C18.1953 4.28953 18.0654 4.31183 17.9442 4.31501C17.7365 4.32138 17.5287 4.32775 17.321 4.32775C17.1132 4.32775 16.9055 4.33093 16.715 4.36915C16.6458 4.38189 16.5679 4.39144 16.49 4.39463C16.187 4.39781 15.8754 4.41054 15.5811 4.39144C15.3474 4.37552 15.1396 4.39463 14.9232 4.41055C14.8107 4.4201 14.7155 4.42965 14.6029 4.41692C14.4991 4.40736 14.3692 4.39781 14.274 4.41055C14.1009 4.43602 13.9624 4.4201 13.8152 4.39463C13.746 4.38189 13.6594 4.37233 13.5902 4.37233C13.0795 4.37233 12.5687 4.37233 12.0494 4.37552C11.9109 4.37552 11.8589 4.40736 11.8936 4.45832C11.9195 4.49016 11.9368 4.52518 11.9628 4.55703C11.6858 4.61435 11.4175 4.64938 11.1232 4.59206C11.0712 4.58251 10.9847 4.58251 10.9327 4.58887C10.7163 4.6239 10.4826 4.6048 10.2749 4.62709C9.90265 4.6653 9.53043 4.68759 9.14956 4.7067C8.95912 4.71625 8.76869 4.72263 8.57825 4.729C8.38782 4.73537 8.19739 4.74173 8.00695 4.75129C7.97233 4.75129 7.9377 4.76084 7.91174 4.75765C7.66071 4.72262 7.40967 4.7481 7.15865 4.75765C6.90762 4.76721 6.64793 4.76721 6.3969 4.77358C6.30169 4.77676 6.20647 4.78313 6.11125 4.7895C6.05066 4.79268 5.99007 4.80542 5.92947 4.80542C5.38414 4.7895 4.84745 4.84364 4.30211 4.84682C4.1463 4.84682 3.98183 4.84364 3.83467 4.8723C3.1768 4.86911 2.55357 4.95509 1.91301 4.9933C1.54945 5.01559 1.19454 5.04107 0.848297 5.08884C0.692486 5.11113 0.528029 5.13342 0.337593 5.12387C0.233719 5.1175 0.0779053 5.13024 -1.67065e-07 5.178C0.008656 5.18756 0.0259659 5.20348 0.034622 5.20348C0.233714 5.2003 0.311619 5.24488 0.363556 5.31175C0.796364 5.3022 1.21185 5.27035 1.61004 5.21622C1.93032 5.17163 2.26792 5.17482 2.5882 5.13979C2.70938 5.12705 2.86518 5.14934 3.03831 5.15571C3.16815 5.08247 3.39321 5.06018 3.64424 5.06655C3.89527 5.07292 4.15496 5.04744 4.40599 5.08566C4.45793 5.09203 4.52718 5.07928 4.58777 5.07291C4.74358 5.05699 4.90804 5.05062 5.04654 5.02515C5.34085 4.9742 5.56591 5.01241 5.78231 5.08884C5.81693 5.10157 5.8429 5.11432 5.86887 5.12706C6.17184 5.12706 6.45749 5.12706 6.76046 5.12706C6.82105 5.10158 6.87299 5.07292 6.94224 5.04744C6.98552 5.03152 7.03746 5.00923 7.0894 5.00286C7.28849 4.98375 7.48758 4.96465 7.69533 4.95828C7.83383 4.95509 7.98098 4.97738 8.11948 4.9742C8.25797 4.9742 8.40513 4.95509 8.54363 4.95191C8.82063 4.94554 8.82063 4.94872 9.1236 4.9933C9.1236 4.97101 9.13226 4.94873 9.13226 4.92007C9.34 4.92007 9.54775 4.91369 9.74684 4.92324C9.86803 4.92961 9.98056 4.95827 10.0931 4.97738C10.171 4.99012 10.2229 4.97738 10.2835 4.92643C10.6644 4.89777 11.0539 4.82453 11.4434 4.94235C11.9628 4.85956 12.5255 4.88185 13.0881 4.87548C13.3911 4.87229 13.6941 4.86911 13.997 4.85C14.3086 4.82771 14.6376 4.84045 14.9578 4.83727C15.2954 4.83408 15.6244 4.83408 15.962 4.80861C16.2563 4.78632 16.5679 4.80224 16.8709 4.79905C17.044 4.79905 17.2171 4.79905 17.3902 4.77676C17.4941 4.76403 17.6066 4.76403 17.7192 4.76084C17.7971 4.75766 17.8836 4.76721 17.9615 4.75765C18.2818 4.72262 18.5934 4.73536 18.9051 4.76721C18.9657 4.77358 19.0349 4.77676 19.0868 4.77039C19.3552 4.72899 19.6495 4.73855 19.9265 4.72581C20.1948 4.71307 20.4545 4.67485 20.7315 4.69078C21.1037 4.65256 21.4933 4.67167 21.8655 4.64301C21.9607 4.63664 22.0472 4.63664 22.1425 4.63983C22.3329 4.6462 22.5233 4.64938 22.7138 4.64301C22.8869 4.63982 23.06 4.6239 23.2331 4.61116C23.3543 4.60161 23.4842 4.6048 23.6054 4.59843C23.7871 4.58888 23.9516 4.62391 24.1247 4.60798C24.2978 4.59206 24.4623 4.5825 24.6095 4.57295C24.7133 4.60161 24.7133 4.66212 24.8692 4.64301C25.0509 4.62072 25.2327 4.60161 25.4058 4.57295C25.5443 4.55066 25.6742 4.54111 25.8213 4.53793C26.0118 4.53474 26.2022 4.52519 26.3926 4.51882C26.4273 4.51882 26.4619 4.51244 26.4879 4.51563C26.8081 4.55384 27.1198 4.53156 27.4314 4.50608C27.5785 4.49334 27.717 4.51245 27.8469 4.54111C27.994 4.57295 28.1498 4.57614 28.3143 4.56977C28.6173 4.55385 28.9116 4.53156 29.2059 4.51245C29.3184 4.50608 29.431 4.50608 29.5435 4.50289C29.7253 4.49653 29.8897 4.51881 30.0629 4.52518C30.2273 4.53155 30.4091 4.50926 30.5822 4.49971C30.6168 4.49971 30.6515 4.49653 30.6775 4.50289C30.9977 4.55385 31.3093 4.522 31.6123 4.48378C31.8201 4.45831 31.9932 4.4615 32.1317 4.51882C32.2182 4.55385 32.3135 4.5634 32.426 4.5634C32.8761 4.5634 33.3262 4.5634 33.7764 4.56022C33.8889 4.56022 33.9928 4.54429 34.1053 4.54111C34.3304 4.53474 34.5554 4.53155 34.7718 4.53155C34.8151 4.53155 34.8757 4.53792 34.9017 4.54747C35.0488 4.61753 35.2479 4.6048 35.4297 4.58569C35.6201 4.56659 35.8019 4.56022 36.001 4.56022C36.0789 4.56022 36.1655 4.56021 36.2347 4.54747C36.3472 4.52837 36.4424 4.54111 36.555 4.54429C36.8926 4.55385 37.2302 4.55385 37.5591 4.55385C37.7236 4.55385 37.8621 4.56658 38.0092 4.59524C38.2256 4.63664 38.4853 4.65893 38.7363 4.61435C38.8489 4.59524 38.97 4.57932 39.0999 4.56977C39.2038 4.56022 39.325 4.55703 39.4288 4.56658C39.8443 4.59206 40.2512 4.60798 40.658 4.5634C40.8138 4.54747 40.9783 4.54429 41.1254 4.57614C41.2986 4.61117 41.489 4.62072 41.6794 4.62391C41.7054 4.66212 41.6188 4.65893 41.5756 4.67167C41.5409 4.68123 41.489 4.6876 41.4371 4.6876C41.1947 4.69078 41.0735 4.75129 40.9437 4.80861C41.0475 4.85319 41.1687 4.83408 41.2726 4.83408C41.5409 4.83726 41.8179 4.82453 42.0776 4.86274C42.1815 4.87866 42.3027 4.87229 42.32 4.81179C42.32 4.80542 42.4412 4.79586 42.4931 4.80223C42.7441 4.83408 42.9519 4.8086 43.1596 4.75446C43.1856 4.7481 43.2202 4.7481 43.2549 4.74492C43.2895 4.77039 43.3241 4.79587 43.3674 4.82453C43.4799 4.81498 43.5838 4.8086 43.6877 4.79586C43.9473 4.76402 44.1984 4.7481 44.484 4.78631C44.6225 4.80542 44.813 4.80224 44.9515 4.78313C45.1159 4.76402 45.2544 4.76084 45.4102 4.78313C45.5747 4.74492 45.6699 4.8086 45.8344 4.81815C45.9816 4.77357 46.1633 4.73855 46.3884 4.76721C46.4403 4.77358 46.5096 4.76084 46.5788 4.76084C46.7693 4.76084 46.9684 4.7481 47.1501 4.76402C47.4098 4.78313 47.6435 4.78631 47.9032 4.76402C48.0936 4.7481 48.3101 4.77039 48.5091 4.75446C48.6996 4.73854 48.89 4.76721 49.0718 4.7895C49.167 4.80223 49.2536 4.79587 49.3488 4.79268C49.695 4.78313 50.0499 4.77039 50.3962 4.80861C50.5607 4.82771 50.7424 4.81816 50.9242 4.81497C51.0973 4.81497 51.2358 4.83408 51.3137 4.90095C51.4782 4.89777 51.66 4.86593 51.8072 4.92643C51.8245 4.9328 51.8937 4.92643 51.937 4.92643C52.0495 4.92643 52.1534 4.92643 52.2573 4.92643C52.3092 4.96146 52.2486 4.97738 52.188 4.98057C52.0062 4.9933 51.8158 5.00286 51.5994 5.01241C51.5734 5.0347 51.5128 5.06336 51.5042 5.09839C51.4955 5.13979 51.6081 5.19074 51.7985 5.2608C51.8418 5.23214 51.8764 5.20029 51.937 5.178C51.9889 5.15889 52.0668 5.14615 52.1447 5.1366C52.3352 5.11113 52.5343 5.0761 52.7334 5.06973C52.9065 5.06336 53.0277 5.03789 53.1489 4.99649C53.2268 4.97101 53.27 4.92325 53.4258 4.93599C53.3999 4.96146 53.3739 4.98693 53.3479 5.00922C53.4172 5.03151 53.4778 5.01559 53.5124 4.99649C53.6336 4.94554 53.7721 4.91688 53.9712 4.91688C54.0578 4.91688 54.153 4.90095 54.2395 4.88184C54.2828 4.87229 54.3001 4.84681 54.3434 4.81815C54.6204 4.81497 54.9147 4.81497 55.209 4.85319C55.2869 4.86274 55.3562 4.88185 55.4341 4.87866C55.6591 4.87866 55.8323 4.90414 55.9881 4.96464C56.066 4.99649 56.1872 4.99648 56.3084 4.97738C56.3343 4.91687 56.1179 4.90414 56.1179 4.84363C56.4728 4.81497 56.8191 4.84045 57.1653 4.85319C57.2086 4.85319 57.2778 4.87229 57.2778 4.88184C57.2778 4.95827 57.451 4.96782 57.5895 4.9933C57.6154 4.99967 57.6501 4.99967 57.6847 5.00285C57.7366 4.96783 57.7712 4.91688 57.8492 4.90095C57.9963 4.87229 58.1608 4.84363 58.3512 4.86274C58.4724 4.87548 58.6022 4.87548 58.7321 4.87548C59.113 4.88184 59.5025 4.88184 59.8834 4.8914C60.0132 4.89458 60.1344 4.88185 60.2556 4.88503C60.3854 4.8914 60.4893 4.8914 60.6278 4.87866C60.7749 4.86274 60.9567 4.86274 61.1039 4.87548C61.4588 4.9105 61.831 4.87866 62.1859 4.92324C62.2378 4.92961 62.3071 4.92643 62.3677 4.92006C62.4975 4.90414 62.6187 4.90096 62.7399 4.92006C62.8784 4.94235 63.0255 4.94235 63.164 4.92643C63.5536 4.88185 63.9604 4.91051 64.3586 4.90414C64.6529 4.94554 64.9559 4.9328 65.2588 4.9328C65.4666 4.9328 65.6657 4.93917 65.8648 4.9742C65.9859 4.99649 66.1418 4.99967 66.2803 5.00285C66.6005 5.00604 66.9208 5.00923 67.2411 5.00604C67.6047 5.00286 67.9682 5.0347 68.3318 5.00604C68.3577 5.00286 68.401 5.00285 68.427 5.00922C68.73 5.06017 69.0502 5.04426 69.3619 5.03789C69.6302 5.0347 69.8985 5.04107 70.1669 5.06018C70.4612 5.08247 70.7728 5.06973 71.0758 5.06973C71.171 5.06973 71.2662 5.06973 71.3614 5.07291C71.3874 5.07291 71.4134 5.08247 71.4566 5.09202C71.4307 5.10476 71.4047 5.12705 71.3787 5.12705C71.0585 5.12068 70.7555 5.16527 70.4352 5.1589C70.4092 5.1589 70.366 5.15889 70.3487 5.16845C70.2448 5.22258 70.0976 5.20985 69.9505 5.20667C69.7773 5.20348 69.6215 5.18755 69.4398 5.20029C69.2666 5.20984 69.0675 5.17482 68.8858 5.1589C68.8079 5.15253 68.7386 5.1366 68.6607 5.15571C68.7473 5.18756 68.8425 5.2194 68.929 5.25125C68.9464 5.25761 68.9377 5.27354 68.9204 5.28309C68.9031 5.29264 68.8685 5.3022 68.8425 5.29901C68.7126 5.29264 68.6001 5.26717 68.5222 5.22896C68.3577 5.14934 68.1327 5.1366 67.8816 5.1366C67.5181 5.1366 67.1545 5.13024 66.8343 5.06336C66.6871 5.10158 66.5746 5.13024 66.4447 5.16527C66.5399 5.2194 66.6958 5.24169 66.8775 5.24169C66.9122 5.24169 66.9381 5.23214 66.9727 5.23214C67.2671 5.24487 67.5527 5.18755 67.8557 5.24169C68.124 5.28627 68.4356 5.29265 68.704 5.34997C68.8079 5.37226 68.9464 5.37544 69.0675 5.39136C69.1541 5.4041 69.2493 5.41684 69.3186 5.43595C69.3532 5.4455 69.3532 5.47734 69.3792 5.50282C69.1195 5.54103 68.8858 5.57288 68.652 5.61109C68.5655 5.62383 68.4876 5.64294 68.401 5.66523C68.3837 5.66841 68.3664 5.68752 68.375 5.69388C68.3837 5.70344 68.4097 5.71618 68.4356 5.71936C68.4962 5.72892 68.5568 5.7321 68.6174 5.73847C68.8338 5.75758 69.0502 5.77668 69.2666 5.79897C69.2926 5.80216 69.3099 5.8149 69.3532 5.83401C69.2926 5.8563 69.2234 5.87859 69.1541 5.90406C69.2839 5.94546 69.4311 5.96457 69.5956 5.9582C70.1149 5.94228 70.6083 5.98049 71.1104 6.01552C71.3095 6.02826 71.5259 6.03144 71.751 6.01552C71.8981 5.86585 71.9933 5.71299 72.0712 5.56014C72.1059 5.4869 72.0972 5.40728 71.9414 5.34359C71.8721 5.31493 71.8462 5.27354 71.7942 5.22896C71.9933 5.20029 72.1578 5.19711 72.3136 5.24169C72.3915 5.26398 72.4608 5.28946 72.5733 5.26717C72.5646 5.25761 72.5646 5.24806 72.5473 5.24169C72.4781 5.21621 72.5127 5.19393 72.5733 5.19074C72.6772 5.18437 72.7897 5.18437 72.9022 5.18756C72.9628 5.18756 73.0148 5.21303 73.0753 5.18756C73.0494 5.1366 72.8936 5.14616 72.8243 5.1175C72.8503 5.11431 72.8676 5.10476 72.8936 5.10476C73.1446 5.08565 73.361 5.1366 73.6034 5.13979C73.8457 5.14297 74.0795 5.12705 74.3218 5.15571C74.4084 5.16526 74.5209 5.17164 74.5988 5.1589C74.8845 5.12387 75.049 5.18437 75.2307 5.25761C75.1701 5.27353 75.1269 5.29901 75.0749 5.29901C74.9018 5.30538 74.72 5.30538 74.5469 5.30538C74.5036 5.30538 74.443 5.29902 74.417 5.28628C74.2353 5.20985 74.0102 5.23532 73.7938 5.24806C73.7765 5.24806 73.7419 5.26398 73.7419 5.27353C73.7419 5.28309 73.7765 5.29901 73.7938 5.29901C74.1054 5.27991 74.3738 5.3627 74.6767 5.35315C74.7287 5.35315 74.7893 5.37544 74.8325 5.39136C74.9018 5.41683 74.9624 5.4455 74.9884 5.45824C75.1788 5.46461 75.3259 5.47097 75.4558 5.47097C75.5943 5.46779 75.7328 5.45505 75.88 5.45187C76.0184 5.44868 76.1656 5.45187 76.2954 5.45187C76.356 5.41684 76.3474 5.37544 76.4686 5.36907C76.5032 5.36907 76.5292 5.35952 76.5551 5.35633C76.7283 5.34041 76.8927 5.31812 77.0658 5.31175C77.2563 5.30219 77.3255 5.22577 77.5419 5.21621C77.6372 5.22258 77.767 5.22895 77.8882 5.24169C77.9661 5.24806 78.0353 5.26398 78.0959 5.2799C78.2517 5.32767 78.4075 5.37863 78.5287 5.42002C78.6759 5.42321 78.7884 5.42321 78.8923 5.42958C78.9702 5.43276 79.0308 5.42321 79.0308 5.39773C79.0308 5.38181 78.9702 5.35634 78.9183 5.34997C78.8317 5.33723 78.7365 5.33404 78.6153 5.32449C78.6586 5.3022 78.6845 5.28309 78.7192 5.28309C78.8144 5.27991 78.9442 5.26398 78.9962 5.28309C79.1693 5.34041 79.3597 5.3022 79.5415 5.30857C79.6194 5.31175 79.7146 5.31493 79.7666 5.33086C79.9137 5.37862 80.0868 5.37544 80.2686 5.37544C80.4418 5.37544 80.6235 5.37862 80.7966 5.37544C81.039 5.37225 81.2727 5.37225 81.4891 5.4232C81.567 5.43913 81.6709 5.44869 81.7661 5.4455C81.9566 5.43913 82.1297 5.48053 82.3288 5.4646C82.3894 5.45823 82.4846 5.48371 82.5279 5.506C82.6144 5.5474 82.727 5.56333 82.8655 5.5888C82.8914 5.52511 82.9088 5.47098 82.9261 5.41366C82.9694 5.41047 83.0213 5.4041 83.0646 5.40728C83.3416 5.42639 83.6272 5.44868 83.9042 5.46779C83.9388 5.47098 83.9735 5.47415 83.9994 5.47097C84.2591 5.43913 84.4928 5.47416 84.7439 5.49964C84.9083 5.51556 85.0901 5.50919 85.2719 5.51237C85.5229 5.51874 85.7826 5.506 86.0336 5.53785C86.1202 5.55059 86.2241 5.54104 86.3193 5.54104C86.6482 5.54104 86.9512 5.55377 87.1936 5.6493C87.2368 5.66523 87.3061 5.66841 87.3753 5.68115C87.3926 5.65567 87.4013 5.6302 87.4359 5.61746C87.4792 5.60154 87.5485 5.59836 87.6004 5.5888C87.9813 5.70981 87.9813 5.70981 88.0938 5.87541C88.1717 5.88496 88.215 5.87222 88.241 5.84674C88.2756 5.80853 88.3016 5.76713 88.3189 5.72892C88.3362 5.69389 88.3448 5.65886 88.3535 5.62701C88.5959 5.61109 88.8036 5.61746 89.0114 5.65886C89.2797 5.70981 89.574 5.68433 89.851 5.67159C90.0761 5.59835 90.3271 5.64931 90.6214 5.64294C90.5262 5.68433 90.4656 5.70662 90.405 5.73528C90.5781 5.75757 90.7859 5.74802 90.9244 5.83082C90.7426 5.84992 90.5954 5.86585 90.431 5.88177C90.3098 5.86267 90.1799 5.84355 90.0241 5.82126C90.0068 5.84355 89.9895 5.85948 89.9895 5.87222C89.9895 5.88177 90.0155 5.89769 90.0414 5.90087C90.4829 5.94864 90.7599 6.08876 91.1408 6.16838C91.3745 6.21933 91.5995 6.25436 91.8592 6.24162C92.0843 6.23207 92.3094 6.22251 92.5171 6.19703C92.7248 6.17156 92.9153 6.13016 93.149 6.12379C93.2615 6.1206 93.3567 6.07603 93.452 6.05055C93.4606 6.01552 93.4433 5.98368 93.4779 5.96138C93.5558 5.90406 93.4866 5.86266 93.3654 5.8149C93.5905 5.7735 93.8069 5.74484 94.0233 5.71299C94.0666 5.70662 94.1531 5.71937 94.1964 5.7321C94.3176 5.77032 94.4215 5.8149 94.5253 5.8563C94.4474 5.89769 94.3609 5.84038 94.2743 5.85948C94.2743 5.86585 94.2483 5.87858 94.257 5.88495C94.3609 5.93909 94.4994 5.98049 94.6638 6.00278C94.7244 6.01234 94.8023 6.02508 94.8456 6.01871C95.0274 5.98686 95.2005 6.02188 95.365 6.02825C95.6679 6.04418 95.9623 6.00278 96.2479 6.03463C96.3258 6.00278 96.2912 5.97731 96.2306 5.95502C96.17 5.93273 96.0921 5.91043 96.0402 5.89133C96.0575 5.84993 96.1267 5.84674 96.1873 5.84356C96.3864 5.83719 96.5595 5.86266 96.724 5.91043C96.9231 5.96775 97.1135 6.03144 97.252 6.11742C97.1481 6.21614 97.0443 6.32123 96.9317 6.4295C96.8712 6.44224 96.8019 6.46135 96.724 6.46453C96.3345 6.49001 95.9623 6.54414 95.5554 6.55369C95.2698 6.56006 94.9928 6.5951 94.7158 6.6142C94.3089 6.63968 93.9021 6.64923 93.4952 6.6142C93.4 6.57917 93.4087 6.53459 93.4433 6.49638C93.5126 6.42314 93.4606 6.35944 93.3914 6.29257C93.1403 6.36263 93.123 6.47727 93.0018 6.56962C92.9413 6.54414 92.872 6.51867 92.7941 6.48364C92.6729 6.50911 92.5517 6.53459 92.4305 6.56007C92.3007 6.58554 92.1709 6.60783 92.0497 6.6333C91.9718 6.64923 91.9891 6.70973 92.0756 6.72247C92.2228 6.74476 92.3786 6.76069 92.5084 6.77979C92.5777 6.83075 92.4565 6.84667 92.4219 6.87533C92.3786 6.91036 92.3094 6.91991 92.2055 6.92946C92.0583 6.9422 91.9285 6.98041 91.79 7.00907C91.6775 6.93265 91.5563 6.90399 91.4005 6.91673C91.2187 6.93265 91.0282 6.95176 90.8291 6.97405C90.7426 6.95813 90.6474 6.93901 90.5608 6.91991C90.3184 6.94538 90.102 6.97086 89.8943 7.025C89.7125 7.06958 89.5048 7.09825 89.2624 7.06958C89.1412 7.05685 88.994 7.07595 88.8469 7.08232C88.8555 7.10461 88.8902 7.13009 88.8729 7.1492C88.8296 7.19378 88.8902 7.22562 88.9767 7.23836C89.2451 7.2702 89.4528 7.35619 89.7644 7.34663C89.9116 7.34345 90.0934 7.34345 90.1367 7.42624C90.1367 7.4358 90.2146 7.44535 90.2492 7.44535C90.5262 7.46127 90.7426 7.52177 90.985 7.5568C90.9503 7.65552 90.9503 7.65552 90.708 7.70966C90.8032 7.71921 90.8897 7.72877 90.985 7.74151C91.0456 7.8243 91.1061 7.91028 91.1581 7.98671C91.262 8.00582 91.2966 7.9899 91.3399 7.96761C91.4091 7.92621 91.4351 7.88163 91.4351 7.83386C91.4351 7.77017 91.4437 7.70329 91.4437 7.6396C91.4437 7.57273 91.4957 7.52496 91.6948 7.51222C91.7207 7.51222 91.738 7.49948 91.764 7.48675C91.6948 7.46446 91.6255 7.43898 91.539 7.41032C91.5822 7.36892 91.6428 7.32752 91.6861 7.28612C91.764 7.21606 91.8765 7.17785 92.0929 7.20651C92.1189 7.2097 92.1622 7.21288 92.1882 7.2097C92.4652 7.16512 92.6383 7.22562 92.7941 7.27976C92.7335 7.35618 92.6816 7.42943 92.621 7.4963C92.6989 7.54407 92.7595 7.56636 92.9326 7.56318C93.0884 7.55999 93.2529 7.60458 93.4347 7.63324C93.4347 7.61413 93.452 7.59184 93.4433 7.56955C93.4 7.50586 93.3394 7.44535 93.2962 7.38484C93.2788 7.35618 93.2702 7.32753 93.2702 7.29887C93.2702 7.2511 93.4 7.20014 93.5212 7.21607C93.8588 7.25428 94.2137 7.22244 94.5513 7.26065C94.6725 7.27339 94.8023 7.26384 94.9322 7.26702C95.1399 7.27021 95.339 7.2702 95.5468 7.28931C95.7199 7.30523 95.919 7.27339 96.1008 7.26702C96.1787 7.26384 96.2652 7.26065 96.3431 7.26702C96.8019 7.29887 97.2607 7.29568 97.7281 7.30523C97.9012 7.30842 98.083 7.27976 98.2475 7.30523C98.4466 7.33708 98.6197 7.29568 98.8101 7.29887C98.9919 7.30205 99.1564 7.28613 99.3295 7.26702C99.4161 7.25747 99.5199 7.26383 99.6152 7.26383C99.8402 7.26065 100.057 7.27976 100.282 7.26702C100.472 7.25747 100.628 7.30842 100.663 7.37529C100.689 7.42624 100.706 7.48038 100.611 7.52496C100.515 7.54725 100.377 7.48356 100.316 7.54407C100.273 7.58865 100.368 7.60457 100.446 7.62368C100.533 7.64279 100.567 7.67463 100.593 7.70966C100.611 7.73514 100.663 7.75743 100.706 7.7829C100.905 7.73832 100.914 7.66508 100.94 7.60457C101 7.46127 101.13 7.32116 101.078 7.17149C101.061 7.10461 101.139 7.03455 101.139 6.96449C101.139 6.83712 101.069 6.70974 101.217 6.58236C101.243 6.56007 101.173 6.52504 101.182 6.49638C101.191 6.43906 101.225 6.38173 101.234 6.32441C101.243 6.27028 101.234 6.21932 101.243 6.16519C101.251 6.1206 101.346 6.09195 101.476 6.08876C101.623 6.08558 101.762 6.08876 101.892 6.11742C101.987 6.13971 102.082 6.162 102.186 6.18748C102.212 6.16519 102.238 6.14608 102.273 6.12061C102.376 6.12061 102.48 6.11742 102.593 6.12061C102.636 6.12061 102.705 6.12697 102.723 6.13971C102.887 6.23843 103.173 6.19066 103.398 6.21932C103.415 6.22251 103.441 6.20977 103.467 6.2034C103.355 6.18748 103.259 6.16837 103.156 6.15882C103.026 6.14608 102.922 6.12698 102.861 6.07921C102.801 6.03144 102.688 6.0187 102.55 6.00915C102.221 5.98686 101.9 5.9582 101.545 5.92954C101.294 5.97731 101.294 5.9773 100.966 5.9582C101.294 5.88177 101.494 5.76076 101.874 5.72573C101.97 5.71617 102.065 5.68433 102.143 5.65567C102.238 5.61746 102.325 5.57287 102.42 5.52829C102.879 5.52511 103.32 5.46779 103.787 5.48052C103.848 5.48371 103.917 5.48371 103.978 5.47734C104.151 5.46779 104.298 5.53148 104.489 5.49963C104.644 5.47416 104.826 5.4646 104.982 5.44868C105.268 5.51555 105.588 5.52511 105.9 5.54421C106.029 5.55377 106.151 5.55695 106.272 5.59198C106.237 5.60153 106.202 5.61109 106.177 5.62383C106.151 5.63656 106.125 5.6493 106.064 5.67478C106.22 5.67797 106.341 5.68752 106.462 5.68434C106.661 5.68434 106.843 5.70025 107.008 5.74165C107.103 5.76713 107.181 5.79579 107.31 5.77349C107.319 5.77031 107.345 5.77031 107.354 5.77349C107.579 5.84674 107.89 5.84674 108.141 5.89451C108.289 5.91998 108.444 5.92954 108.6 5.92954C108.903 5.92954 109.206 5.91361 109.518 5.9582C109.561 5.93272 109.604 5.91043 109.656 5.88177C109.578 5.86585 109.526 5.84992 109.44 5.83082C109.89 5.74484 110.288 5.79261 110.669 5.8754C110.738 5.85311 110.799 5.834 110.86 5.81808C110.972 5.78942 111.085 5.77987 111.223 5.80216C111.474 5.84037 111.725 5.83082 111.968 5.7926C112.348 5.7321 112.729 5.67478 113.101 5.60472C113.335 5.56014 113.595 5.54422 113.837 5.5474C114.062 5.55059 114.27 5.54422 114.486 5.53785C114.694 5.53466 114.902 5.53784 115.11 5.52829C115.283 5.51874 115.439 5.49008 115.62 5.52511C115.664 5.53466 115.742 5.52511 115.802 5.51874C115.993 5.49963 116.157 5.46779 116.313 5.42639C116.469 5.38818 116.581 5.34359 116.538 5.26717C116.668 5.09839 116.633 4.9328 116.503 4.7672C116.486 4.75128 116.495 4.73217 116.486 4.70669C116.33 4.67803 116.148 4.64938 116.096 4.57613C115.698 4.62709 115.343 4.63027 114.98 4.62071C114.98 4.60161 114.963 4.57932 114.989 4.56977C115.136 4.50289 115.188 4.42328 115.266 4.34685C115.326 4.28953 115.395 4.21947 115.369 4.15897C115.326 4.03159 115.439 3.91695 115.491 3.79594C115.525 3.70996 115.603 3.62716 115.672 3.53162C115.802 3.52207 115.915 3.5571 116.045 3.56984C116.157 3.61442 116.001 3.659 116.045 3.70358C116.105 3.72906 116.192 3.73224 116.261 3.71314C116.547 3.63353 116.867 3.61442 117.213 3.62397C117.525 3.63034 117.845 3.63034 118.157 3.64945C118.546 3.67174 118.953 3.659 119.343 3.63353C119.62 3.61442 119.862 3.61442 120.122 3.66856C120.13 3.64308 120.148 3.62716 120.148 3.61124C120.113 3.51889 120.078 3.42654 120.026 3.33419C120.018 3.3119 119.948 3.29597 119.879 3.30234C119.689 3.32145 119.516 3.34693 119.464 3.42972C119.446 3.4552 119.386 3.48385 119.325 3.49659C119.117 3.54117 118.892 3.56984 118.65 3.57939C118.408 3.58895 118.209 3.56665 118.087 3.48067C118.061 3.46156 118.01 3.44564 117.975 3.42972C118.01 3.35011 118.122 3.28323 118.087 3.20362C118.07 3.16222 118.157 3.11446 118.2 3.06987C118.226 3.04121 118.287 3.01574 118.295 2.99026C118.304 2.91384 118.399 2.85651 118.538 2.80556C118.564 2.79919 118.564 2.78645 118.581 2.77372C118.615 2.74824 118.572 2.72595 118.442 2.70685C118.65 2.47438 118.65 2.45527 118.46 2.35655C118.356 2.41388 118.33 2.47438 118.278 2.5317C118.191 2.63042 118.027 2.70685 117.767 2.75461C117.672 2.77054 117.559 2.75143 117.551 2.71321C117.542 2.63679 117.551 2.56036 117.551 2.48075C117.707 2.43935 117.871 2.40432 118.01 2.35973C118.139 2.31834 118.269 2.27694 118.356 2.21962C118.191 2.19414 118.113 2.23236 118.044 2.25783C117.94 2.30242 117.819 2.31515 117.655 2.32152C117.689 2.26102 117.715 2.20688 117.75 2.15274C117.819 2.14956 117.88 2.14637 117.932 2.14319C117.958 2.08587 117.836 2.1018 117.793 2.08587C117.733 2.06677 117.681 2.04766 117.611 2.02218C117.256 2.12409 117.222 2.30879 116.85 2.40432C116.668 2.39795 116.486 2.39795 116.304 2.3661C116.105 2.32789 115.906 2.33108 115.724 2.38521C115.681 2.39795 115.612 2.4075 115.551 2.4075C115.517 2.4075 115.456 2.39476 115.439 2.38202C115.421 2.36929 115.43 2.34063 115.447 2.33426C115.543 2.31197 115.638 2.28649 115.742 2.28331C115.949 2.27694 116.088 2.22599 116.235 2.18141C116.278 2.16867 116.296 2.14 116.339 2.11134C116.174 2.09224 116.027 2.07314 115.88 2.05403C115.707 2.02855 115.672 1.97123 115.819 1.93302C115.923 1.90436 116.027 1.88206 116.122 1.85977C116.668 1.91072 116.668 1.91072 116.91 2.05084C117.222 1.95849 117.248 1.83429 117.222 1.69736C116.971 1.65596 116.728 1.66552 116.477 1.68781C116.278 1.70374 116.079 1.72602 115.854 1.74832C115.871 1.63686 115.958 1.54451 116.062 1.45535C116.183 1.35026 116.209 1.24199 116.14 1.13053C115.828 1.14964 115.568 1.18785 115.343 1.25791C115.231 1.29294 115.101 1.31204 114.971 1.33433C114.789 1.36618 114.616 1.3821 114.426 1.35981C114.4 1.35663 114.365 1.363 114.313 1.36937C114.331 1.3821 114.348 1.39484 114.374 1.41713C114.028 1.48401 113.664 1.48401 113.327 1.43306C113.205 1.45216 113.266 1.51585 113.119 1.50311C112.859 1.48401 112.591 1.46489 112.331 1.4426C112.184 1.46171 112.227 1.5477 112.037 1.55088C112.002 1.55088 111.95 1.58591 111.95 1.60501C111.933 1.67189 111.812 1.69418 111.665 1.70692C111.587 1.71329 111.509 1.71647 111.422 1.71647C110.972 1.71647 110.522 1.71647 110.072 1.71647C110.02 1.71647 109.968 1.71647 109.933 1.7101C109.881 1.70055 109.803 1.691 109.786 1.67189C109.752 1.64642 109.821 1.63367 109.873 1.61775C109.899 1.61138 109.916 1.60183 109.959 1.58909C109.803 1.5668 109.674 1.53814 109.648 1.4649C109.726 1.44579 109.829 1.42668 109.881 1.39484C109.942 1.36299 109.951 1.32159 110.003 1.26109C109.864 1.28975 109.777 1.31204 109.682 1.32797C109.596 1.34389 109.509 1.35981 109.431 1.37891C109.336 1.4012 109.249 1.42669 109.137 1.45535C109.094 1.45216 109.016 1.44579 108.938 1.43942C108.912 1.45853 108.886 1.48719 108.843 1.49037C108.791 1.49674 108.704 1.48719 108.678 1.47127C108.626 1.44579 108.566 1.41394 108.592 1.37255C108.618 1.32796 108.626 1.28019 108.67 1.23561C108.704 1.19103 108.773 1.15282 108.817 1.11779C108.739 1.04773 108.67 0.984041 108.6 0.920352C108.245 0.968119 108.245 0.968122 107.864 0.939461C107.743 0.971306 107.622 1.0127 107.484 1.03818C107.362 1.06365 107.215 1.0732 107.077 1.09231C107.137 1.10505 107.198 1.11779 107.276 1.1369C107.241 1.18467 107.207 1.23561 107.155 1.28338C107.077 1.35662 106.921 1.39484 106.705 1.39166C106.497 1.38847 106.298 1.37255 106.133 1.31841C106.012 1.2802 106.003 1.28339 105.813 1.33752C105.804 1.33434 105.778 1.33115 105.778 1.32797C105.761 1.31204 105.744 1.29612 105.718 1.27383C105.623 1.28339 105.536 1.28975 105.441 1.2993C105.458 1.31841 105.475 1.33115 105.501 1.34707C105.354 1.37891 105.207 1.35344 105.043 1.35981C105.043 1.30886 105.06 1.27065 105.034 1.23243C105.017 1.20696 104.939 1.18785 104.878 1.16556C104.636 1.18148 104.402 1.1974 104.168 1.21014C104.108 1.21333 104.038 1.21333 103.978 1.21014C103.822 1.20059 103.666 1.18785 103.51 1.17511C103.363 1.11142 103.658 1.01589 103.398 0.952197C103.372 0.974488 103.355 0.990414 103.329 1.00315C103.242 1.07003 103.242 1.07002 103.043 1.06047C102.42 1.03817 101.805 1.04773 101.182 1.05092C101.087 1.05092 100.991 1.06047 100.905 1.07002C100.775 1.08276 100.654 1.08276 100.533 1.06365C100.334 1.03818 100.135 1.02544 99.9268 1.04454C99.8229 1.0541 99.7017 1.05091 99.6498 0.996777C99.7363 0.974485 99.8316 0.952198 99.9268 0.929907C99.8922 0.923538 99.8575 0.910801 99.8402 0.913985C99.5892 0.933092 99.3468 0.95538 99.0958 0.974486C99.0352 0.980855 98.9659 0.97767 98.9054 0.980854C98.8015 0.984039 98.7063 0.949016 98.5937 0.987229C98.5504 1.00315 98.4119 0.980859 98.3254 0.977675C98.2908 0.977675 98.2648 0.97449 98.2302 0.977675C97.9359 0.996781 97.6415 1.0127 97.3472 1.03181C97.3646 1.08595 97.5117 1.07958 97.5983 1.10505C97.5723 1.10824 97.555 1.11779 97.529 1.11779C97.3299 1.12734 97.1481 1.10187 96.9577 1.07321C97.0183 1.06047 97.0702 1.04773 97.1308 1.035C97.0096 1.00952 96.8712 0.993594 96.8885 0.92672C96.8971 0.894875 96.8452 0.869404 96.7586 0.85985C96.6721 0.891695 96.7413 0.92354 96.7673 0.955384C96.8019 1.00952 96.6894 1.0541 96.5595 1.035C96.4037 1.01271 96.2566 1.00952 96.1008 1.02544C96.1354 1.04773 96.1613 1.06047 96.196 1.08594C96.1267 1.09868 96.0575 1.11779 95.9882 1.12098C95.8324 1.12735 95.6679 1.12416 95.5121 1.12416C95.2871 1.12416 95.062 1.11779 94.837 1.12416C94.56 1.13371 94.3349 1.10824 94.1445 1.02544C94.0492 0.920354 93.9281 0.812082 93.9107 0.691072C93.8934 0.61146 93.8069 0.528659 93.5212 0.519105C93.4347 0.515921 93.4347 0.506372 93.3135 0.436313C93.4347 0.401284 93.5558 0.439495 93.703 0.433126C93.677 0.417203 93.6597 0.398101 93.6337 0.398101C93.4952 0.391732 93.3481 0.391727 93.2096 0.385358C93.149 0.382174 93.0884 0.372624 93.0365 0.356701C93.0192 0.350332 93.0278 0.312114 93.0278 0.312114C93.2615 0.302561 93.4606 0.24206 93.703 0.245244C93.7982 0.245244 93.9107 0.251615 93.9886 0.238877C94.4821 0.149711 95.0534 0.168817 95.5294 0.0860207C95.3909 0.0605448 95.3909 0.060546 95.3304 0.0637305C94.7417 0.108313 94.1531 0.156079 93.5558 0.197478C93.0971 0.229322 92.6296 0.232508 92.1795 0.19111C91.8073 0.156081 91.4264 0.143338 91.0456 0.1306C91.0023 0.1306 90.9417 0.130605 90.9244 0.143342C90.8205 0.197479 90.6906 0.165634 90.5435 0.159265C90.2925 0.267537 89.9289 0.293014 89.5394 0.302567C89.7818 0.328043 90.0155 0.331222 90.2492 0.289824C90.3098 0.280271 90.3704 0.273904 90.431 0.267535C90.6387 0.242059 90.708 0.254796 90.7859 0.331224C90.8118 0.3567 90.7686 0.394916 90.6993 0.404469C90.5781 0.42676 90.4396 0.429943 90.3271 0.410836C90.1367 0.378991 89.9462 0.410839 89.7644 0.398101C89.5653 0.385363 89.4182 0.417208 89.2537 0.429946C89.1412 0.4395 89.046 0.445864 88.9334 0.433126C88.717 0.410835 88.4833 0.410835 88.2756 0.449049C88.0072 0.5 87.7216 0.499998 87.4359 0.48726C87.358 0.484076 87.2715 0.477707 87.2109 0.48726C87.0897 0.509552 86.9772 0.509553 86.8387 0.496815C86.6915 0.484077 86.5443 0.487262 86.4578 0.544583C86.0423 0.640117 85.6095 0.706989 85.0988 0.646484C85.0209 0.636931 84.9343 0.627384 84.865 0.636938C84.6573 0.668783 84.4582 0.633753 84.2505 0.636938C84.06 0.640122 83.8696 0.621014 83.6792 0.61146C83.4454 0.598723 83.2031 0.605088 82.9607 0.608272C82.9001 0.608272 82.8482 0.627384 82.7876 0.636938C82.7183 0.649676 82.6404 0.671962 82.5712 0.671962C82.3721 0.668777 82.3548 0.729281 82.2595 0.773864C82.0778 0.789786 81.8873 0.789788 81.7055 0.767497C81.4978 0.742021 81.2987 0.74202 81.091 0.74202C80.8486 0.74202 80.6062 0.735656 80.3725 0.748394C80.1215 0.761132 79.8791 0.773866 79.6281 0.751574C79.4636 0.735652 79.2732 0.748394 79.1087 0.764317C78.9789 0.777054 78.8663 0.773867 78.7365 0.761129C78.6066 0.748391 78.4508 0.767498 78.321 0.761129C78.1825 0.75476 78.0526 0.71655 77.9141 0.71655C77.4727 0.71655 77.0312 0.681514 76.5898 0.710175C76.4686 0.719728 76.3301 0.713362 76.2089 0.713362C76.0098 0.716546 75.828 0.710174 75.6895 0.646484C75.6722 0.640116 75.6289 0.636935 75.5943 0.63375C75.4904 0.668779 75.3606 0.684705 75.2134 0.684705C74.6854 0.687889 74.1574 0.675145 73.638 0.646485C73.5341 0.640116 73.4649 0.621013 73.4129 0.585983C73.387 0.570061 73.361 0.554138 73.3523 0.538216C73.3177 0.477711 73.2138 0.436311 73.0753 0.401282C73.0321 0.391728 73.0061 0.366253 72.9455 0.337592C73.2398 0.337592 73.4908 0.32167 73.7419 0.353515C73.8457 0.366253 73.9669 0.36307 74.0708 0.36307C74.4517 0.36307 74.8412 0.363072 75.2221 0.366257C75.4471 0.366257 75.6635 0.375809 75.8886 0.388547C76.2175 0.404469 76.5551 0.391728 76.8927 0.385359C76.9273 0.385359 76.962 0.366254 77.0226 0.347147C76.8841 0.318487 76.7456 0.302566 76.6157 0.293013C76.3647 0.273906 76.1137 0.264351 75.8626 0.251613C75.7847 0.248428 75.7068 0.238876 75.6289 0.229323C75.4125 0.200662 75.2048 0.184736 74.9797 0.216581C74.8672 0.232503 74.72 0.226138 74.6075 0.2134C74.4344 0.191109 74.2612 0.191111 74.0881 0.191111C73.4129 0.191111 72.7378 0.191111 72.0712 0.191111C72.0539 0.191111 72.0366 0.191111 72.0193 0.191111C71.7077 0.213402 71.4047 0.235688 71.0758 0.216581C70.7815 0.200658 70.4698 0.226138 70.1669 0.229323C69.8466 0.232507 69.5263 0.229319 69.206 0.232503C69.0935 0.232503 68.9896 0.242056 68.8771 0.248425C68.8165 0.251609 68.7386 0.267534 68.6953 0.257981C68.4962 0.216583 68.2885 0.280276 68.0894 0.238878C68.0548 0.232509 67.9942 0.232509 67.9509 0.238878C67.5614 0.286645 67.1545 0.264354 66.7563 0.270723C66.6265 0.273907 66.5053 0.280276 66.3755 0.286645C66.3149 0.28983 66.2456 0.296194 66.1937 0.289825C65.9253 0.261165 65.657 0.267532 65.3887 0.28027C65.1896 0.289824 64.9818 0.267539 64.7827 0.302568C64.7308 0.312122 64.6616 0.299377 64.5923 0.296193C64.549 0.293008 64.4971 0.277086 64.4538 0.28027C64.1682 0.3153 63.8912 0.267534 63.6055 0.273903C63.3372 0.280272 63.0688 0.277091 62.8005 0.277091C62.7485 0.328042 62.8438 0.337591 62.9043 0.34396C63.0169 0.350328 63.1294 0.350335 63.2419 0.350335C63.5103 0.350335 63.7873 0.350335 64.0643 0.350335C63.8998 0.452238 63.8565 0.46816 63.6055 0.445869C63.3198 0.420393 63.0342 0.423574 62.7485 0.417205C62.5321 0.410836 62.3157 0.391731 62.0907 0.378993C62.1859 0.340779 62.3417 0.353516 62.3763 0.29938C62.082 0.245244 61.7791 0.226138 61.4674 0.267536C61.2943 0.289827 61.1212 0.286644 60.9567 0.261168C60.8528 0.245246 60.7403 0.24206 60.6451 0.267536C60.6105 0.328041 60.7922 0.305746 60.8269 0.34396C60.5845 0.34396 60.3508 0.34396 60.0132 0.34396C60.1777 0.321668 60.2556 0.312118 60.3421 0.29938C59.9872 0.273904 59.1043 0.273908 58.7061 0.302568C59.0437 0.340782 59.3726 0.296195 59.6669 0.337593C59.3986 0.343962 59.1562 0.401284 58.8792 0.36307C58.8446 0.356701 58.7927 0.37262 58.7407 0.375805C58.4551 0.398096 58.1694 0.394919 57.8838 0.334413C58.0656 0.299384 58.2646 0.340781 58.4637 0.293013C58.3252 0.286645 58.2214 0.280271 58.1175 0.280271C57.5375 0.280271 56.9662 0.283459 56.3863 0.283459C56.2737 0.283459 56.1525 0.289824 56.0487 0.280271C55.8842 0.264348 55.7197 0.267534 55.5812 0.289825C55.3562 0.324855 55.1484 0.286646 54.932 0.302569C54.9061 0.305753 54.8714 0.296198 54.8368 0.293014C54.6377 0.273907 54.4559 0.318487 54.2742 0.315303C54.101 0.312118 53.9366 0.273908 53.7634 0.302569C53.7115 0.334413 53.7808 0.347151 53.8413 0.350335C53.9798 0.356704 54.127 0.359886 54.2742 0.363071C54.4819 0.366255 54.6897 0.359889 54.8974 0.366258C54.9666 0.369442 55.0359 0.388544 55.0965 0.401282C55.0619 0.445865 54.9926 0.468158 54.9147 0.458605C54.707 0.436314 54.5079 0.458604 54.3001 0.464973C54.1443 0.471342 53.9798 0.474524 53.824 0.471339C53.5817 0.46497 53.3479 0.480896 53.1142 0.506372C52.8805 0.531847 52.6468 0.538215 52.4044 0.544584C52.0235 0.554138 51.6427 0.57325 51.2791 0.621017C51.1233 0.640124 50.9762 0.649674 50.8117 0.649674C50.301 0.649674 49.7903 0.652857 49.2709 0.656041C48.942 0.659226 48.942 0.65923 48.6909 0.748395C48.4399 0.757949 48.1889 0.773871 47.9378 0.78024C47.7041 0.783425 47.4704 0.773867 47.2367 0.78342C47.2194 0.78342 47.2021 0.7675 47.1848 0.761131C47.1848 0.757946 47.1934 0.748395 47.2021 0.748395C47.28 0.742026 47.3579 0.732474 47.4358 0.732474C47.7561 0.729289 48.0763 0.73247 48.3966 0.729286C48.4659 0.729286 48.5438 0.722915 48.6303 0.719731C48.5524 0.681517 48.4572 0.656046 48.3707 0.668784C48.0763 0.710182 47.7647 0.691069 47.4704 0.694253C47.2021 0.694253 46.9597 0.703808 46.7866 0.799343C46.5615 0.694255 46.2239 0.764313 45.9989 0.703808C45.9036 0.735653 45.9383 0.761133 46.0075 0.764318C46.1287 0.773871 46.2585 0.770681 46.4057 0.773865C46.146 0.831186 45.7132 0.87259 45.4882 0.859852C45.3929 0.81527 45.315 0.831192 45.2112 0.859852C45.1506 0.875775 45.064 0.872588 44.9861 0.856665C44.6485 0.786607 44.2849 0.764312 43.8521 0.789788C43.9733 0.808895 44.0858 0.828006 44.207 0.850298C44.1811 0.863035 44.1724 0.87259 44.1464 0.875775C43.9733 0.891697 43.8088 0.907614 43.6357 0.917167C43.4799 0.926721 43.3241 0.929908 43.1683 0.936277C42.8826 0.949015 42.597 0.952201 42.3113 0.929909C42.0343 0.907618 41.7487 0.894876 41.463 0.885322C41.3245 0.878953 41.1774 0.875769 41.0562 0.917167C40.935 0.955381 40.7879 0.958571 40.6494 0.939464C40.4676 0.913988 40.3118 0.917172 40.156 0.961755C40.0954 0.977677 40.0088 0.984047 39.9309 0.987232C39.801 0.990416 39.6799 0.987232 39.55 0.987232C39.4635 0.952203 39.3942 0.923541 39.325 0.898065C39.2817 0.90125 39.2297 0.901251 39.2211 0.90762C39.0826 0.993601 38.9008 1.01589 38.6498 0.971309C38.6065 0.964941 38.5546 0.958565 38.5113 0.964934C38.1218 1.00633 37.7582 0.949015 37.386 0.936277C37.1782 0.929908 36.9705 0.923539 36.7541 0.920355C36.7368 0.904432 36.7108 0.885327 36.6848 0.86622C36.3732 0.834376 36.0875 0.882138 35.7759 0.901245C35.7932 0.913983 35.8192 0.926725 35.8452 0.945832C35.7673 0.968124 35.6894 0.993595 35.6028 1.0127C35.4643 1.04455 35.421 1.03818 35.1787 0.980857C35.1267 0.968119 35.0575 0.961754 35.0055 0.968122C34.7026 0.990414 34.4342 1.035 34.1918 1.10506C34.1226 1.09869 34.0534 1.09869 33.9928 1.08913C33.8369 1.06684 33.6898 1.07002 33.5253 1.08595C33.3003 1.11142 33.0666 1.12416 32.7982 1.14646C32.8155 1.12098 32.8155 1.10824 32.8328 1.0955C32.8415 1.07958 32.8588 1.06684 32.8761 1.0541C32.7376 1.02544 32.6078 1.06684 32.4952 1.05729C32.3308 1.04137 32.2702 1.07958 32.1663 1.10506C32.0451 1.13372 31.9239 1.15601 31.7941 1.18148C31.6902 1.20059 31.595 1.21651 31.4738 1.20059C31.318 1.1783 31.1622 1.18148 31.0064 1.20377C30.9371 1.21332 30.8506 1.21651 30.7727 1.21651C30.3572 1.21333 29.9503 1.24199 29.5435 1.26428C29.3877 1.27383 29.2146 1.28657 29.0934 1.3216C28.877 1.37892 28.6432 1.37255 28.4095 1.37892C28.297 1.3821 28.1931 1.38211 28.0806 1.39166C27.9594 1.40121 27.8123 1.41077 27.6997 1.39803C27.4747 1.36937 27.2669 1.39166 27.0505 1.40439C26.9034 1.41395 26.7476 1.43942 26.5831 1.41076C26.5311 1.40121 26.4532 1.4044 26.3926 1.41395C26.1762 1.44898 25.9512 1.43942 25.7261 1.44261C25.553 1.44579 25.3712 1.43942 25.2067 1.46808C25.1808 1.47445 25.1462 1.47764 25.1115 1.47445C24.973 1.47127 24.8259 1.45216 24.6874 1.46172C24.5402 1.47127 24.4104 1.47764 24.2632 1.4649C24.194 1.45854 24.1161 1.47764 24.0209 1.48719C24.0641 1.51904 24.0988 1.54451 24.1594 1.58591C24.0988 1.60502 24.0382 1.62731 23.9603 1.65279C23.865 1.64005 23.7871 1.63368 23.7179 1.62413C23.5448 1.59865 23.3716 1.59865 23.1985 1.62094C22.8523 1.67508 22.4627 1.63686 22.1165 1.68463C22.0905 1.68781 22.0473 1.691 22.0213 1.68463C21.8135 1.64642 21.6058 1.68144 21.4154 1.69737C21.1124 1.71966 20.8181 1.72921 20.5151 1.7324C20.2468 1.73558 19.9784 1.7515 19.7187 1.77698C19.511 1.79927 19.3119 1.79928 19.1041 1.79928C18.6713 1.80246 18.2472 1.81201 17.8317 1.85341C17.6932 1.86615 17.546 1.86933 17.4075 1.86933C17.1998 1.87252 16.992 1.86933 16.7843 1.87251C16.6112 1.87251 16.4381 1.8757 16.2649 1.89481C16.1178 1.91073 15.9447 1.90436 15.7888 1.91391C15.7975 1.93302 15.7456 1.95213 15.6936 1.96168ZM100.706 6.06965C100.948 6.21614 100.94 6.21614 100.966 6.34989C100.974 6.40084 101.009 6.45179 101.035 6.50593C101.078 6.60146 100.983 6.67789 100.749 6.72566C100.637 6.74795 100.524 6.77024 100.412 6.79253C100.386 6.79571 100.377 6.80846 100.36 6.81483C100.386 6.82756 100.403 6.8403 100.437 6.85941C100.351 6.87214 100.282 6.88488 100.221 6.89762C99.9268 6.8403 99.9268 6.84348 99.6238 6.83393C99.494 6.83074 99.3728 6.81801 99.2516 6.81164C99.2256 6.81164 99.1823 6.82119 99.1823 6.82756C99.1737 6.83393 99.1997 6.85303 99.217 6.85622C99.4334 6.89443 99.6498 6.93265 99.8662 6.96767C99.9527 6.98041 99.9614 7.00908 99.9701 7.03774C100.109 7.06322 100.308 7.04092 100.403 7.10143C100.247 7.11735 100.091 7.13327 99.9354 7.14601C99.4074 7.18741 98.8794 7.23518 98.334 7.22881C97.581 7.21925 96.8279 7.25428 96.0921 7.19696C95.6853 7.21607 95.2784 7.15875 94.8629 7.19378C94.7417 7.20333 94.6032 7.19696 94.482 7.18422C94.1877 7.14919 93.8761 7.17148 93.5818 7.15238C93.4779 7.14601 93.3567 7.17786 93.2615 7.1492C93.1403 7.11417 93.2096 7.06321 93.2356 7.01863C93.2529 6.9836 93.2269 6.94857 93.2529 6.91673C93.3048 6.84985 93.3827 6.78617 93.4433 6.71929C93.4866 6.71929 93.5385 6.70974 93.5818 6.7161C93.8155 6.75113 94.0406 6.73839 94.283 6.72247C94.5686 6.70336 94.8629 6.63968 95.1659 6.69381C95.2005 6.70018 95.2611 6.69063 95.3044 6.68426C95.4862 6.66515 95.6766 6.64923 95.8584 6.62694C96.5422 6.55051 96.9317 6.53459 97.4944 6.52504C97.5723 6.52185 97.6589 6.52503 97.6848 6.56325C97.6156 6.63331 97.4425 6.68107 97.3819 6.75432C97.5031 6.77342 97.5723 6.74158 97.6502 6.72566C97.8493 6.68745 97.8493 6.59191 98.0311 6.53459C98.4379 6.50593 98.8534 6.44542 99.3035 6.43906C99.3122 6.46453 99.2949 6.49 99.3295 6.50593C99.3641 6.52503 99.4767 6.51866 99.5459 6.49956C99.6411 6.46771 99.7104 6.43269 99.7363 6.38173C99.7623 6.31804 99.8229 6.25754 99.8662 6.19703C100.143 6.14927 100.429 6.11105 100.706 6.06965ZM71.4134 0.38218C71.3268 0.426762 71.2316 0.468156 71.1537 0.512739C71.0758 0.557321 70.9719 0.573248 70.8334 0.573248C70.4006 0.573248 69.9678 0.573246 69.535 0.570061C69.4398 0.570061 69.3445 0.563688 69.258 0.55095C69.1281 0.535028 69.007 0.531849 68.8858 0.547771C68.8425 0.55414 68.7819 0.56051 68.7473 0.557326C68.4703 0.519112 68.1673 0.557322 67.8903 0.528661C67.4748 0.487263 67.0593 0.509558 66.6525 0.500004C66.5399 0.49682 66.4274 0.500001 66.3149 0.496816C66.237 0.493632 66.1591 0.484082 66.0898 0.468159C66.0465 0.458606 66.0033 0.433132 65.9946 0.414025C65.9859 0.388549 66.0465 0.372621 66.1158 0.369437C66.1764 0.366252 66.2456 0.36307 66.3062 0.36307C67.0247 0.36307 67.7518 0.359882 68.4703 0.359882C68.7213 0.359882 68.981 0.372623 69.232 0.331225C69.2839 0.321671 69.3619 0.321669 69.4224 0.328038C69.5609 0.347145 69.6994 0.347145 69.8379 0.328038C69.9072 0.318484 70.0024 0.321675 70.0717 0.334413C70.2015 0.35352 70.314 0.343966 70.4439 0.334413C70.7728 0.315306 71.1017 0.315306 71.4134 0.38218ZM110.21 4.85637C110.037 4.86592 109.89 4.86592 109.752 4.88184C109.241 4.93598 108.721 4.94872 108.193 4.94235C108.055 4.94235 107.942 4.9328 107.873 4.88503C107.795 4.83408 107.683 4.83089 107.544 4.84682C107.475 4.85319 107.406 4.87866 107.31 4.84682C107.31 4.83408 107.293 4.81497 107.31 4.80223C107.328 4.78949 107.38 4.77357 107.414 4.77357C107.665 4.77357 107.925 4.75765 108.176 4.78631C108.245 4.79586 108.332 4.79268 108.41 4.78631C108.695 4.76083 108.972 4.75765 109.258 4.78949C109.397 4.80542 109.544 4.80223 109.682 4.78313C109.786 4.77039 109.899 4.75765 109.994 4.74491C110.15 4.72262 110.271 4.74173 110.401 4.77676C110.34 4.80224 110.28 4.82771 110.21 4.85637ZM113.517 3.95197C113.5 3.92968 113.491 3.92332 113.491 3.91695C113.474 3.84052 113.5 3.7832 113.742 3.75773C113.932 3.73543 114.106 3.68767 114.287 3.65264C114.339 3.64308 114.409 3.63353 114.46 3.63353C114.556 3.63671 114.642 3.64945 114.737 3.65582C114.824 3.66218 114.919 3.62079 115.006 3.659C115.023 3.70359 114.876 3.7004 114.833 3.73225C114.789 3.76409 114.729 3.78957 114.677 3.82142C114.296 3.866 113.924 3.90739 113.517 3.95197ZM106.194 5.25124C106.09 5.2608 106.003 5.27035 105.908 5.2799C105.977 5.29582 106.029 5.30538 106.081 5.31812C106.029 5.34678 105.943 5.3627 105.874 5.35315C105.683 5.33085 105.493 5.34041 105.302 5.33722C105.242 5.33722 105.181 5.32767 105.129 5.32449C105.086 5.27035 105.164 5.24806 105.259 5.24169C105.363 5.23214 105.475 5.23214 105.579 5.22577C105.605 5.20029 105.631 5.18119 105.649 5.16526C106.142 5.1589 106.142 5.1589 106.151 5.18119C106.099 5.19074 106.055 5.20029 105.995 5.21303C106.064 5.22577 106.116 5.23532 106.194 5.25124ZM64.5057 0.433127C64.5144 0.429943 64.5144 0.420392 64.5231 0.420392C64.8953 0.350333 65.3021 0.372624 65.6916 0.378993C65.7176 0.378993 65.7609 0.401282 65.7695 0.417204C65.7869 0.44268 65.7522 0.461785 65.683 0.471339C65.38 0.506368 64.8433 0.496819 64.5231 0.452237C64.5144 0.445868 64.5144 0.439496 64.5057 0.433127ZM95.2524 5.83401C95.3823 5.84993 95.5208 5.86267 95.6506 5.88177C95.7112 5.89133 95.7632 5.90407 95.7978 5.92317C95.8238 5.93273 95.8151 5.95501 95.8064 5.96775C95.7978 5.97412 95.7545 5.98367 95.7285 5.98049C95.6506 5.97412 95.5814 5.96457 95.5035 5.95502C95.3996 5.93909 95.3044 5.9168 95.2005 5.90406C95.088 5.88814 94.9755 5.87858 94.8456 5.86266C94.9841 5.82445 94.9928 5.78305 94.9495 5.73528C94.9408 5.72891 94.9755 5.71936 95.0101 5.70663C95.1572 5.71618 95.2611 5.74165 95.3304 5.79261C95.2957 5.80853 95.2698 5.82127 95.2524 5.83401ZM56.6979 0.480894C56.5334 0.480894 56.4122 0.484079 56.291 0.480894C56.1872 0.47771 56.0833 0.458601 55.9708 0.455417C55.8496 0.449048 55.7197 0.452238 55.5899 0.445869C55.5726 0.445869 55.538 0.429946 55.538 0.420392C55.538 0.410839 55.5639 0.401284 55.5812 0.394915C55.6072 0.388546 55.6418 0.388544 55.6678 0.38536C55.8842 0.378991 56.1093 0.388548 56.3257 0.356703C56.4295 0.343965 56.5161 0.375808 56.5853 0.42676C56.62 0.445867 56.6546 0.455418 56.6979 0.480894ZM117.516 3.39151C117.629 3.44246 117.629 3.44246 117.681 3.54755C117.551 3.54755 117.43 3.55392 117.308 3.55073C117.196 3.55073 117.083 3.56029 116.962 3.53481C117.161 3.48386 117.343 3.43609 117.516 3.39151ZM93.2875 0.535028C93.4173 0.589164 93.5126 0.627383 93.5991 0.668782C93.6424 0.687888 93.6424 0.713365 93.5818 0.732472C93.5299 0.748394 93.4779 0.751576 93.4087 0.738838C93.2096 0.691071 93.2183 0.627378 93.2875 0.535028ZM113.075 4.07617C113.205 4.04114 113.292 4.01248 113.387 3.99337C113.448 3.98064 113.534 3.98382 113.612 3.98382C113.681 3.987 113.716 4.00611 113.716 4.03159C113.716 4.05706 113.664 4.07617 113.595 4.07617C113.439 4.08254 113.292 4.07936 113.075 4.07617ZM98.4466 1.09231C98.611 1.0955 98.6976 1.10187 98.7755 1.0955C98.8707 1.09231 98.9573 1.07639 99.0438 1.06684C99.0612 1.06684 99.0785 1.06684 99.0871 1.06684C99.1131 1.07003 99.1477 1.0732 99.1737 1.07639C99.1564 1.08594 99.1477 1.0955 99.1218 1.10187C98.8967 1.14645 98.8188 1.14645 98.4466 1.09231ZM92.9672 7.09824C92.7595 7.12053 92.7595 7.12053 92.6296 7.08869C92.8374 7.01863 92.8374 7.01863 92.9672 7.09824Z" fill="#FF7373" fill-opacity="0.3"/>
<path d="M75.4471 7.10143C75.4731 7.03456 75.4904 6.97723 75.5164 6.90717C75.7934 6.93583 76.0617 6.94858 76.3214 6.91036C76.3733 6.90081 76.4513 6.91036 76.5032 6.91673C76.7715 6.94857 77.0312 6.9422 77.3082 6.91991C77.4381 6.90717 77.5852 6.91355 77.7497 6.91036C77.8362 6.95813 77.9315 7.01226 78.0267 7.06321C78.4508 7.09506 78.4508 7.09506 78.7798 7.20651C78.8144 7.2097 78.849 7.21607 78.875 7.21289C79.2818 7.1683 79.3251 7.18422 79.3338 6.99952C79.3424 6.89762 79.2559 6.81801 79.1 6.7384C78.9702 6.67471 78.6759 6.68426 78.5807 6.75432C78.5634 6.76387 78.5634 6.77661 78.5547 6.78935C78.4681 6.89125 78.3729 6.91355 78.1132 6.89444C78.0353 6.88807 77.9574 6.87533 77.8882 6.86259C77.7064 6.83075 77.5333 6.81164 77.3342 6.83712C77.2909 6.84349 77.2303 6.84667 77.1957 6.8403C76.8754 6.77661 76.4945 6.81801 76.1656 6.76706C76.1137 6.76069 76.0444 6.77024 75.9838 6.77343C75.9059 6.7798 75.8367 6.78935 75.7241 6.79891C75.7674 6.76706 75.7847 6.74795 75.8194 6.72247C75.5943 6.68426 75.3865 6.63012 75.1009 6.66515C75.0057 6.67789 74.8845 6.66834 74.7633 6.66834C74.7546 6.68108 74.746 6.697 74.7373 6.71292C74.7287 6.72247 74.7287 6.73521 74.72 6.74476C74.4171 6.77979 74.1227 6.74795 73.8284 6.7384C73.7678 6.73521 73.6986 6.73203 73.638 6.73522C73.612 6.73522 73.5861 6.74795 73.5774 6.75751C73.5688 6.76706 73.5774 6.78298 73.5947 6.78935C73.6207 6.80209 73.664 6.82119 73.6986 6.82437C73.9929 6.83711 74.1833 6.91354 74.3651 6.9836C74.6594 7.09824 74.9884 7.13964 75.4471 7.10143Z" fill="#FF7373" fill-opacity="0.3"/>
<path d="M50.2663 0.321672C50.1365 0.331225 49.9634 0.350332 49.7903 0.353517C49.6171 0.353517 49.4527 0.324856 49.2796 0.321672C48.9506 0.318487 48.6217 0.38536 48.2927 0.32804C47.9552 0.32804 47.6176 0.32804 47.28 0.32804C46.8991 0.32804 46.5182 0.315302 46.1374 0.32804C46.0162 0.331224 45.8863 0.321675 45.7651 0.308938C45.6353 0.2962 45.5141 0.29301 45.3929 0.312117C45.3497 0.318486 45.2891 0.324861 45.2544 0.318492C44.9774 0.277094 44.6831 0.302566 44.3975 0.299382C44.1551 0.296197 43.9127 0.296197 43.679 0.299382C43.4453 0.302566 43.2029 0.270719 42.9692 0.296195C42.7874 0.267534 42.597 0.283457 42.4152 0.296195C42.2767 0.302564 42.1122 0.305754 41.9911 0.286647C41.8006 0.257987 41.6102 0.277088 41.4284 0.280272C41.2553 0.286641 41.0822 0.283458 40.9177 0.289827C40.7619 0.296196 40.6407 0.264351 40.4935 0.273905C40.355 0.283458 40.2166 0.299382 40.0694 0.299382C39.6712 0.302566 39.2644 0.308939 38.8662 0.30257C38.5373 0.299386 38.1997 0.321676 37.8707 0.308938C37.7495 0.305753 37.611 0.347148 37.4812 0.369439C37.4293 0.378992 37.4466 0.417208 37.5072 0.426762C37.5678 0.436315 37.637 0.449053 37.6889 0.442684C38.3208 0.359888 38.9787 0.378991 39.6279 0.375807C40.2512 0.372622 40.8744 0.372623 41.4977 0.369439C41.6362 0.369439 41.7833 0.359886 41.9218 0.353517C41.9824 0.350333 42.0517 0.347148 42.1036 0.353517C42.2507 0.372624 42.3806 0.366259 42.5277 0.350337C42.7009 0.328045 42.874 0.324861 43.0471 0.350337C43.1856 0.369444 43.3241 0.372627 43.4713 0.372627C44.1291 0.369442 44.787 0.372623 45.4362 0.369439C45.9296 0.366254 46.4144 0.375808 46.9078 0.385361C47.0289 0.388546 47.1501 0.394917 47.28 0.378994C47.4618 0.356703 47.6522 0.366253 47.8426 0.391729C48.0937 0.426758 48.3533 0.429949 48.6303 0.414027C48.9246 0.39492 49.2363 0.401284 49.5392 0.401284C49.8076 0.398099 50.0846 0.401288 50.3529 0.398104C50.3789 0.398104 50.4135 0.375812 50.4395 0.366259C50.4049 0.356705 50.3789 0.343963 50.3443 0.337594C50.3443 0.321672 50.3269 0.324856 50.2663 0.321672Z" fill="#FF7373" fill-opacity="0.3"/>
<path d="M67.1892 7.24473C67.1026 7.26065 67.0507 7.2702 66.9987 7.27975C67.016 7.28612 67.0247 7.29568 67.042 7.29886C67.1026 7.30842 67.1632 7.31797 67.2238 7.32115C67.6826 7.34026 68.0548 7.42943 68.4183 7.54407C68.427 7.51859 68.4443 7.49948 68.427 7.48675C68.3058 7.39758 68.124 7.32434 67.9249 7.25746C67.899 7.2511 67.873 7.24473 67.847 7.23517C67.5614 7.15556 67.4229 7.04729 67.3969 6.91673C67.3969 6.90399 67.3969 6.89443 67.3883 6.88169C67.3363 6.80208 67.293 6.72565 67.3883 6.64286C67.4315 6.60146 67.3536 6.56325 67.2324 6.54732C67.2065 6.54414 67.1545 6.53777 67.1459 6.54096C67.016 6.58554 66.8169 6.57917 66.7044 6.63968C66.5746 6.71292 66.3409 6.73203 66.1418 6.76706C65.908 6.74477 65.7436 6.76387 65.709 6.86577C65.7003 6.88169 65.6224 6.90081 65.5705 6.91036C65.4752 6.92947 65.3627 6.9422 65.2675 6.96131C65.2415 6.96449 65.2156 6.9836 65.2242 6.98678C65.2415 6.99952 65.2761 7.01226 65.3108 7.01863C65.3541 7.025 65.406 7.02182 65.4493 7.02182C65.5272 7.02182 65.5705 7.01226 65.6224 6.98042C65.7522 6.90717 65.9686 6.86259 66.2024 6.84348C66.2716 6.83711 66.3582 6.84667 66.4361 6.85304C66.4534 6.85304 66.462 6.87214 66.4707 6.88169C66.4707 6.88488 66.4534 6.89444 66.4447 6.89444C66.3668 6.90081 66.2889 6.90717 66.211 6.91036C66.1244 6.91354 66.0552 6.92946 66.0465 6.96131C66.0465 6.98678 66.0812 7.00271 66.1504 7.01226C66.4188 7.06003 66.6871 7.11098 66.9468 7.16512C67.042 7.18741 67.1026 7.21607 67.1892 7.24473Z" fill="#FF7373" fill-opacity="0.3"/>
<path d="M54.3694 6.20022C54.3088 6.13971 54.2395 6.08239 54.1789 6.02189C54.1097 5.95183 54.0145 5.88177 54.0145 5.80216C54.0231 5.75121 54.1097 5.72254 54.2309 5.74165C54.378 5.76394 54.5165 5.7926 54.6637 5.82126C54.7156 5.83081 54.7676 5.84674 54.8368 5.86266C54.9147 5.83082 54.9926 5.80216 55.0619 5.77031C55.4341 5.76076 55.8323 5.79261 56.1872 5.70662C56.1612 5.68752 56.1352 5.66522 56.1093 5.64612C55.5553 5.66841 55.5553 5.66841 55.3735 5.71936C55.1571 5.70662 54.9926 5.6493 54.8022 5.59835C54.7329 5.48052 54.8195 5.36907 54.9407 5.25761C55.0099 5.19711 55.0619 5.13978 55.1225 5.07291C54.984 5.05699 54.8628 5.04107 54.7589 5.02833C54.6204 5.05062 54.5944 5.08883 54.5685 5.13023C54.5425 5.16844 54.4992 5.20666 54.4646 5.23851C54.5165 5.29264 54.5858 5.34359 54.6204 5.40091C54.6464 5.44549 54.4733 5.49326 54.3607 5.47416C54.1097 5.42639 53.85 5.4041 53.573 5.41683C53.547 5.41683 53.5124 5.42639 53.4778 5.43276C53.5038 5.44549 53.5211 5.4646 53.5557 5.47097C53.6076 5.48052 53.6769 5.48689 53.7375 5.48689C54.0145 5.48052 54.2309 5.52829 54.4386 5.56969C54.4819 5.62383 54.404 5.6493 54.3088 5.65567C54.0837 5.66522 53.8587 5.66204 53.6423 5.66523C53.3393 5.67159 53.0363 5.66204 52.742 5.5888C52.7161 5.63975 52.6987 5.67478 52.6814 5.7098C52.742 5.73528 52.8026 5.72573 52.8632 5.71618C53.0017 5.69707 53.1402 5.70025 53.2787 5.72573C53.3912 5.74802 53.5038 5.77031 53.6423 5.75757C53.6682 5.75439 53.7288 5.79579 53.7808 5.82445C53.5903 5.85629 53.4432 5.88177 53.2527 5.91362C53.3479 5.94865 53.4518 5.97094 53.4865 6.00278C53.5384 6.04737 53.6942 6.02189 53.7375 6.06965C53.7721 6.10468 53.876 6.13653 53.9625 6.15882C54.0578 6.18748 54.1789 6.20341 54.2828 6.2257C54.3261 6.21614 54.3434 6.20977 54.3694 6.20022Z" fill="#FF7373" fill-opacity="0.3"/>
<path d="M65.5531 5.64293C65.4406 5.62064 65.3281 5.60153 65.1896 5.6079C64.9386 5.62064 64.6962 5.63657 64.4452 5.61109C64.3846 5.60472 64.2807 5.62064 64.2288 5.63975C64.1422 5.67796 64.047 5.68433 63.9344 5.66522C63.8133 5.64293 63.6401 5.68433 63.5536 5.62383C63.3804 5.62064 63.2073 5.61745 63.0515 5.61427C62.9736 5.65885 63.0948 5.6716 63.0948 5.70026C63.0688 5.70344 63.0342 5.71299 63.0169 5.7098C62.8265 5.66204 62.636 5.63019 62.4023 5.63019C62.2984 5.63019 62.2205 5.62701 62.1599 5.66204C62.134 5.67478 62.0647 5.68433 62.0301 5.68115C61.7704 5.64293 61.5021 5.71299 61.2337 5.66522C61.1645 5.65249 61.0519 5.67796 60.9567 5.68751C60.697 5.71617 60.4374 5.72573 60.169 5.69707C60.0998 5.68752 60.0045 5.6907 59.9353 5.69707C59.866 5.70344 59.7968 5.72254 59.6496 5.7512C59.892 5.76076 60.0392 5.76395 60.1863 5.77031C60.1863 5.77668 60.1863 5.77987 60.1863 5.78624C60.0651 5.79261 59.9526 5.79897 59.8314 5.80534C60.195 5.82445 60.5585 5.85629 60.9048 5.78305C60.974 5.77031 61.0519 5.76394 61.1298 5.76076C61.3722 5.75757 61.6059 5.76076 61.8483 5.75757C62.0214 5.75439 62.1859 5.78942 62.3677 5.76713C62.4023 5.76394 62.4542 5.77986 62.4889 5.78942C62.5841 5.82126 62.7139 5.81171 62.8178 5.84037C62.8957 5.85948 63.0255 5.84992 63.164 5.85629C63.1381 5.83719 63.1294 5.82445 63.1121 5.80853C63.1294 5.80216 63.1467 5.7926 63.164 5.7926C63.3199 5.77987 63.4757 5.77031 63.6228 5.75439C63.9344 5.72255 64.2374 5.69389 64.5577 5.74484C64.6789 5.76394 64.8001 5.75439 64.878 5.70026C64.9559 5.64294 65.0857 5.63338 65.2415 5.66204C65.3714 5.68433 65.4752 5.68752 65.5531 5.64293Z" fill="#FF7373" fill-opacity="0.3"/>
<path d="M110.756 7.85295C110.877 7.86251 110.981 7.87206 111.093 7.87524C111.154 7.87843 111.214 7.87206 111.301 7.86888C111.301 7.82748 111.301 7.78927 111.301 7.75424C111.812 7.71603 111.838 7.70965 112.002 7.58227C111.993 7.57909 111.976 7.57272 111.968 7.57272C111.864 7.58546 111.751 7.5982 111.647 7.61094C111.301 7.65234 110.955 7.69692 110.583 7.70329C110.461 7.70329 110.34 7.72558 110.219 7.7415C109.994 7.76697 109.76 7.78289 109.526 7.79563C109.085 7.81474 108.652 7.8243 108.211 7.81793C108.185 7.81793 108.15 7.8243 108.124 7.83067C108.098 7.83703 108.064 7.84977 108.072 7.85614C108.081 7.87206 108.098 7.88799 108.124 7.89754C108.159 7.9071 108.211 7.91664 108.254 7.91664C108.479 7.90072 108.678 7.98034 108.912 7.93575C108.929 7.93257 108.972 7.93894 108.998 7.94212C109.492 8.04084 109.959 7.97715 110.427 7.91028C110.531 7.89435 110.643 7.87206 110.756 7.85295Z" fill="#FF7373" fill-opacity="0.3"/>
<path d="M99.0006 8.08861C98.7322 8.04085 98.4812 8.01855 98.1782 8.05358C97.9532 8.07906 97.7108 8.08543 97.4771 8.09498C97.0356 8.1109 96.5942 8.13956 96.1527 8.14593C95.9969 8.14911 95.867 8.13319 95.7545 8.09179C95.616 8.1109 95.5121 8.1523 95.3217 8.12364C95.1659 8.10135 94.9755 8.11409 94.811 8.1109C94.7764 8.16186 94.8629 8.17778 94.9322 8.17141C95.1139 8.14912 95.2698 8.14912 95.4342 8.18733C95.59 8.22554 95.7718 8.21917 95.9449 8.21917C96.3085 8.21917 96.6807 8.21918 97.0529 8.23192C96.8538 8.25102 96.6547 8.27331 96.4557 8.29242C96.3777 8.30197 96.3777 8.32745 96.421 8.37522C96.6288 8.36885 96.8365 8.36566 97.0356 8.35611C97.1914 8.34974 97.3559 8.337 97.503 8.3179C97.9791 8.25102 98.4552 8.18096 98.9227 8.1109C98.9486 8.10772 98.9659 8.09817 99.0006 8.08861Z" fill="#FF7373" fill-opacity="0.3"/>
<path d="M118.936 4.67485C118.979 4.63345 119.014 4.61116 119.014 4.58887C119.031 4.48378 118.979 4.37869 119.092 4.27679C119.117 4.2545 119.005 4.21947 118.936 4.22584C118.849 4.23858 118.754 4.24813 118.676 4.26724C118.555 4.29272 118.442 4.32456 118.338 4.35003C118.287 4.34366 118.243 4.34366 118.226 4.33411C118.122 4.29589 118.027 4.30545 117.932 4.33411C117.88 4.34685 117.854 4.37232 117.819 4.38824C117.733 4.43283 117.629 4.46467 117.464 4.46786C117.326 4.46786 117.274 4.50607 117.23 4.54429C117.179 4.59205 117.282 4.65575 117.412 4.63345C117.629 4.59842 117.854 4.67166 118.061 4.62071C118.07 4.61753 118.122 4.62708 118.139 4.63663C118.191 4.66211 118.252 4.67485 118.347 4.66211C118.529 4.63664 118.719 4.643 118.936 4.67485Z" fill="#FF7373" fill-opacity="0.3"/>
<path d="M84.0514 6.86896C84.2418 6.9008 84.3803 6.91673 84.5275 6.92628C84.614 6.93265 84.7179 6.94538 84.7785 6.97086C85.0382 7.08232 85.4017 7.0855 85.748 7.08232C85.9384 7.08232 86.1202 7.11098 86.3106 7.10461C86.5011 7.09824 86.6915 7.10461 86.8819 7.10779C86.9425 7.10779 87.0031 7.12372 87.0551 7.13327C87.5398 7.22244 87.661 7.22562 88.2236 7.15874C88.2669 7.11734 88.3102 7.06958 88.3708 7.01226C88.2669 7.00589 88.189 6.99633 88.1198 6.99952C87.9813 7.00589 87.8341 7.01226 87.7043 7.03136C87.3927 7.07276 87.0897 7.04728 86.7781 7.03136C86.2154 6.99952 85.6528 6.96449 85.0901 6.92628C84.9343 6.91673 84.7785 6.89762 84.6313 6.87851C84.4496 6.84985 84.2851 6.84667 84.0514 6.86896Z" fill="#FF7373" fill-opacity="0.3"/>
<path d="M107.743 6.07283C107.579 6.01233 107.423 6.00278 107.267 6.00278C107.016 6.00596 106.843 5.96456 106.739 5.88177C106.713 5.85947 106.679 5.84037 106.635 5.82444C106.575 5.80215 106.505 5.7926 106.41 5.80852C106.436 5.83081 106.471 5.8531 106.505 5.87858C106.393 5.87539 106.306 5.86584 106.211 5.86902C106.133 5.87221 106.064 5.8945 105.986 5.8945C105.744 5.8945 105.493 5.89132 105.242 5.88813C105.25 5.91998 105.268 5.95183 105.268 5.98686C105.268 6.01552 105.25 6.04099 105.233 6.06328C105.372 6.08557 105.501 6.10149 105.631 6.12378C105.709 6.1397 105.744 6.10786 105.787 6.10468C105.925 6.10149 106.064 6.11105 106.151 6.162C106.272 6.23524 106.454 6.22887 106.679 6.20658C106.557 6.16837 106.462 6.1397 106.367 6.10786C106.41 6.09512 106.428 6.08239 106.454 6.08239C106.782 6.07602 107.111 6.05691 107.449 6.07601C107.536 6.08238 107.613 6.07602 107.743 6.07283Z" fill="#FF7373" fill-opacity="0.3"/>
<path d="M62.4023 7.01863C62.4629 6.98678 62.5062 6.96449 62.5754 6.92946C62.4715 6.92628 62.411 6.91991 62.3504 6.91991C61.8397 6.91672 61.3376 6.91036 60.8269 6.91036C60.6278 6.91036 60.4633 6.87533 60.2469 6.85304C59.9526 6.89125 59.6237 6.89762 59.2861 6.87851C59.2082 6.87533 59.1303 6.87851 59.0524 6.87851C58.9225 6.8817 58.8013 6.89125 58.6715 6.88806C58.4205 6.88488 58.1521 6.85622 57.9184 6.87214C57.6587 6.89125 57.4164 6.87533 57.1653 6.86577C57.0788 6.86259 57.0095 6.86896 56.9662 6.89762C57.1913 6.94538 57.2952 6.97086 57.425 6.95813C57.6501 6.93584 57.8665 6.96449 58.0829 6.96131C58.3079 6.95812 58.533 6.95812 58.7581 6.96131C58.8879 6.96131 59.0091 6.97086 59.1389 6.97723C59.1822 6.98041 59.2341 6.99316 59.2774 6.98997C59.6929 6.94857 60.1257 7.03137 60.5499 6.97086C60.6018 6.96449 60.6711 6.98041 60.7317 6.9836C60.9827 6.99315 61.2337 7.00589 61.4847 6.97086C61.6146 6.95175 61.7617 6.95175 61.9089 6.97086C62.0474 6.98997 62.2119 6.99952 62.4023 7.01863Z" fill="#FF7373" fill-opacity="0.3"/>
<path d="M103.026 7.96442C103.069 7.99944 103.104 8.02173 103.138 8.05039C103.078 8.09498 102.982 8.11728 102.853 8.13638C102.506 8.18096 102.177 8.23828 101.918 8.337C101.866 8.3561 101.788 8.36884 101.719 8.38477C101.675 8.3975 101.632 8.41661 101.58 8.43253C101.632 8.44209 101.658 8.45164 101.684 8.45164C101.944 8.42935 102.203 8.40706 102.463 8.38159C102.723 8.35611 102.965 8.32426 103.13 8.22873C103.207 8.18415 103.381 8.16185 103.502 8.13319C103.519 8.07906 103.372 8.10453 103.346 8.07587C103.415 8.06632 103.484 8.05677 103.554 8.04403C103.658 8.0281 103.727 8.00263 103.779 7.96124C103.822 7.91347 103.926 7.87525 103.995 7.83386C103.926 7.80838 103.839 7.81156 103.813 7.82748C103.649 7.94212 103.355 7.96123 103.026 7.96442Z" fill="#FF7373" fill-opacity="0.3"/>
<path d="M59.5371 5.23851C59.4852 5.18437 59.4505 5.12705 59.641 5.10794C59.7362 5.09839 59.7881 5.09202 59.7622 5.05381C59.7275 5.00604 59.5804 4.96782 59.5284 4.98693C59.3207 5.05699 59.061 5.04744 58.8186 5.06017C58.8013 5.06017 58.7754 5.0761 58.7667 5.08565C58.7667 5.0952 58.784 5.10794 58.8013 5.11431C58.8273 5.12068 58.8619 5.12068 58.8879 5.12705C58.9139 5.13024 58.9312 5.13979 58.9571 5.14934C58.8273 5.20348 58.6628 5.19074 58.507 5.19074C58.3685 5.19074 58.23 5.18437 58.0742 5.18119C58.0829 5.19711 58.0829 5.21303 58.0915 5.22895C58.1002 5.24488 58.1002 5.26398 58.1088 5.28945C58.4551 5.31493 58.81 5.34041 59.1995 5.36589C59.3034 5.32767 59.4159 5.28309 59.5371 5.23851Z" fill="#FF7373" fill-opacity="0.3"/>
<path d="M119.646 1.5254C119.464 1.45853 119.36 1.5445 119.204 1.54769C119.066 1.46808 118.858 1.4235 118.598 1.40121C118.589 1.41076 118.564 1.42349 118.572 1.42668C118.659 1.47763 118.745 1.5254 118.832 1.57635C118.754 1.63049 118.589 1.62412 118.477 1.65278C118.494 1.66233 118.503 1.67188 118.52 1.67507C118.589 1.68781 118.667 1.70692 118.737 1.70373C118.927 1.70055 118.962 1.75468 119.04 1.79608C119.135 1.78653 119.221 1.77697 119.343 1.76424C119.325 1.72921 119.308 1.70055 119.291 1.6687C119.516 1.65278 119.516 1.65278 119.576 1.58909C119.611 1.5668 119.628 1.54451 119.646 1.5254Z" fill="#FF7373" fill-opacity="0.3"/>
<path d="M85.8432 0.226136C86.1029 0.245243 86.3539 0.229322 86.6049 0.235691C86.856 0.24206 87.0983 0.289826 87.3667 0.257981C87.3753 0.245243 87.3926 0.22932 87.4013 0.210213C87.5831 0.178368 87.7822 0.165635 87.9986 0.159266C88.215 0.152897 88.4314 0.130606 88.6478 0.111499C88.6824 0.108315 88.7084 0.086023 88.7517 0.0637317C88.6738 0.0573627 88.6045 0.0446207 88.5526 0.0509897C88.3968 0.073281 88.241 0.0414389 88.0851 0.0541769C87.9293 0.0637303 87.7908 0.095572 87.6437 0.114679C87.5831 0.121048 87.5138 0.124231 87.4532 0.121047C87.1589 0.114678 86.8906 0.152895 86.6136 0.172001C86.4578 0.181555 86.3106 0.19748 86.1548 0.175189C86.0336 0.159266 85.9384 0.184738 85.8432 0.226136Z" fill="#FF7373" fill-opacity="0.3"/>
<path d="M4.12033 2.48075C4.12899 2.52533 4.18958 2.54126 4.25018 2.53807C4.6397 2.51897 5.02924 2.4903 5.40145 2.43935C5.65248 2.40432 5.90351 2.36611 6.1805 2.36293C6.23244 2.36293 6.27571 2.34064 6.37958 2.31516C6.08528 2.28968 5.86022 2.29605 5.6265 2.31197C5.50532 2.32153 5.37547 2.32471 5.25429 2.33426C5.15041 2.34382 5.02923 2.347 4.94266 2.3693C4.68298 2.4298 4.4233 2.47438 4.12033 2.48075Z" fill="#FF7373" fill-opacity="0.3"/>
<path d="M50.526 5.69707C50.7511 5.7512 50.9415 5.72255 51.1233 5.7321C51.2964 5.74165 51.4609 5.76713 51.634 5.76395C51.8158 5.76395 51.9976 5.71299 52.1794 5.76395C52.2486 5.74802 52.3092 5.74165 52.3438 5.72255C52.4044 5.69707 52.6035 5.69707 52.5083 5.63975C52.4477 5.60153 52.3352 5.63975 52.2486 5.64293C52.0928 5.6493 51.937 5.65249 51.7812 5.6493C51.5648 5.64612 51.357 5.6079 51.132 5.64611C51.0973 5.65248 51.0368 5.64294 50.9935 5.63657C50.829 5.61428 50.6992 5.6493 50.526 5.69707Z" fill="#FF7373" fill-opacity="0.3"/>
<path d="M65.5531 5.64293C65.6051 5.65567 65.657 5.67159 65.709 5.68115C65.7609 5.6907 65.8388 5.70981 65.8734 5.70344C66.0552 5.66841 66.211 5.6907 66.3668 5.72573C66.5313 5.76076 66.6958 5.76076 66.8602 5.72255C66.9554 5.70026 67.0507 5.68433 67.1718 5.66204C67.1372 5.63019 67.1199 5.60154 67.0853 5.57925C67.016 5.53785 66.9468 5.52829 66.8516 5.5474C66.5573 5.60472 66.2629 5.62064 65.934 5.59835C65.8128 5.58561 65.6484 5.59517 65.5531 5.64293Z" fill="#FF7373" fill-opacity="0.3"/>
<path d="M70.5218 6.78616C70.9286 6.8594 71.3528 6.84985 71.7769 6.82437C72.2011 6.79571 72.781 6.79253 73.2485 6.82756C73.2831 6.83074 73.3177 6.83393 73.3437 6.82756C73.3783 6.82119 73.4216 6.80845 73.4389 6.79571C73.4649 6.77024 73.4303 6.74158 73.3697 6.73839C73.2658 6.73202 73.1446 6.72884 73.0407 6.73521C72.5993 6.76706 72.1578 6.7575 71.7077 6.76387C71.5172 6.76705 71.3355 6.71928 71.145 6.74476C70.9546 6.77024 70.7728 6.74795 70.5824 6.75114C70.5564 6.75432 70.5391 6.77342 70.5218 6.78616Z" fill="#FF7373" fill-opacity="0.3"/>
<path d="M5.81694 2.69411C5.53129 2.66863 5.25429 2.69411 4.98595 2.73232C4.88207 2.74824 4.78686 2.76735 4.68298 2.78328C4.59642 2.79601 4.5012 2.7992 4.41464 2.80557C4.4233 2.84696 4.49254 2.8597 4.57045 2.86289C4.89073 2.87244 5.20235 2.87244 5.51397 2.86289C5.56591 2.82149 5.488 2.76098 5.6871 2.7578C5.75634 2.75143 5.83425 2.73551 5.81694 2.69411Z" fill="#FF7373" fill-opacity="0.3"/>
<path d="M50.6732 0.369437C50.7251 0.398098 50.7338 0.40765 50.7424 0.40765C50.8636 0.404466 50.9848 0.398099 51.106 0.394915C51.2185 0.394915 51.3137 0.407651 51.4349 0.401283C51.7033 0.388545 51.9716 0.375808 52.24 0.410837C52.2659 0.414022 52.3092 0.42039 52.3352 0.417205C52.7074 0.369438 53.0969 0.401281 53.4778 0.391728C53.5211 0.391728 53.573 0.385358 53.6076 0.375805C53.6249 0.372621 53.6249 0.356703 53.6336 0.34078C53.5903 0.337596 53.547 0.334414 53.5038 0.334414C53.3912 0.340783 53.2874 0.34715 53.1748 0.356703C52.9584 0.372625 52.7507 0.321672 52.517 0.347148C52.3265 0.369439 52.1101 0.350335 51.9024 0.350335C51.686 0.347151 51.4609 0.3567 51.2618 0.337593C51.0454 0.308933 50.8983 0.359884 50.6732 0.369437Z" fill="#FF7373" fill-opacity="0.3"/>
<path d="M75.8713 5.69388C75.9492 5.71299 76.0271 5.72892 76.0964 5.74484C76.0531 5.76713 76.0358 5.77668 76.0184 5.78624C76.0358 5.79261 76.0617 5.80216 76.079 5.80216C76.3647 5.79898 76.633 5.83401 76.91 5.85948C77.0312 5.86904 77.1611 5.87221 77.2822 5.86903C77.3342 5.86903 77.3861 5.84992 77.4467 5.83719C77.1611 5.75757 77.0745 5.73529 76.8581 5.7321C76.5378 5.72892 76.2349 5.70026 75.9319 5.67478C75.9232 5.6716 75.9146 5.68115 75.8713 5.69388Z" fill="#FF7373" fill-opacity="0.3"/>
<path d="M100.706 8.73188C100.42 8.73506 100.186 8.73188 99.9527 8.74143C99.7363 8.75098 99.5286 8.77009 99.3122 8.78601C99.3468 8.80193 99.3728 8.81786 99.4074 8.83696C99.2343 8.88155 99.0525 8.92931 98.8361 8.98663C98.9227 8.993 98.9573 9.00255 98.9919 8.99937C99.1391 8.98981 99.2602 8.97071 99.3728 8.9325C99.4507 8.90384 99.5546 8.88791 99.6411 8.85925C99.7623 8.82104 99.8748 8.80193 100.031 8.83378C100.117 8.85288 100.212 8.84651 100.308 8.83059C100.437 8.8083 100.567 8.78601 100.706 8.73188Z" fill="#FF7373" fill-opacity="0.3"/>
<path d="M87.3753 6.48682C87.1676 6.44542 86.9858 6.41039 86.804 6.37536C86.7521 6.36581 86.6828 6.35625 86.6223 6.35625C86.4491 6.35307 86.276 6.35625 86.0856 6.35944C86.1202 6.4295 86.25 6.46453 86.3626 6.48045C86.6569 6.51548 86.9598 6.56324 87.2888 6.52503C87.3234 6.52185 87.3407 6.50593 87.3753 6.48682Z" fill="#FF7373" fill-opacity="0.3"/>
<path d="M10.8981 2.19096C10.7942 2.18777 10.6817 2.18141 10.5778 2.17822C10.5692 2.14638 10.5519 2.1209 10.5432 2.09542C10.2662 2.04766 9.99786 2.05084 9.71221 2.08906C9.70356 2.12727 9.80744 2.12727 9.85937 2.14001C9.94594 2.15912 9.99787 2.18141 10.0325 2.21643C10.0671 2.25146 10.1537 2.28012 10.2229 2.31197C10.4566 2.22599 10.4566 2.22599 10.8981 2.19096Z" fill="#FF7373" fill-opacity="0.3"/>
<path d="M114.4 5.72254C114.729 5.78942 115.006 5.8945 115.395 5.88495C115.525 5.82763 115.482 5.76712 115.465 5.7098C115.456 5.69069 115.361 5.67159 115.309 5.67796C115.274 5.68114 115.248 5.68114 115.222 5.68751C115.006 5.73846 114.781 5.7512 114.538 5.71299C114.495 5.7098 114.443 5.71936 114.4 5.72254Z" fill="#FF7373" fill-opacity="0.3"/>
<path d="M18.8272 2.22599C18.8618 2.23873 18.8791 2.25783 18.9137 2.2642C19.0695 2.28649 19.2513 2.29923 19.3812 2.26739C19.5976 2.21644 19.8053 2.23554 20.0217 2.24191C20.065 2.24191 20.1083 2.23554 20.1862 2.22599C20.0477 2.16867 19.9178 2.13682 19.7187 2.15593C19.6235 2.16549 19.5196 2.17822 19.4417 2.16867C19.208 2.14319 19.0176 2.16548 18.8272 2.22599Z" fill="#FF7373" fill-opacity="0.3"/>
<path d="M45.4882 5.79897C45.7478 5.81808 45.9556 5.84355 46.2066 5.81489C46.397 5.7926 46.6221 5.81171 46.8299 5.81171C46.9251 5.81171 47.0203 5.80216 47.1068 5.79579C47.1242 5.79579 47.1328 5.77668 47.1415 5.76713C47.1415 5.76394 47.1242 5.75439 47.1155 5.75439C47.0289 5.74165 46.9337 5.72255 46.8472 5.72255C46.6135 5.72892 46.3711 5.74484 46.1374 5.75439C46.0768 5.75758 46.0075 5.76713 45.9556 5.75757C45.7825 5.7321 45.6613 5.77031 45.4882 5.79897Z" fill="#FF7373" fill-opacity="0.3"/>
<path d="M83.0559 0.503183C83.255 0.541397 83.4368 0.566877 83.6532 0.563693C83.7397 0.560508 83.835 0.57961 83.9302 0.582795C84.0687 0.585979 84.2158 0.589167 84.3543 0.585983C84.4063 0.585983 84.4496 0.563693 84.5275 0.54777C84.3717 0.509556 84.2245 0.525477 84.0947 0.522293C83.9042 0.519108 83.7138 0.522291 83.5493 0.480893C83.3589 0.433126 83.2117 0.4586 83.0559 0.503183Z" fill="#FF7373" fill-opacity="0.3"/>
<path d="M108.349 6.56324C108.375 6.48045 108.297 6.43905 108.193 6.40402C108.038 6.40084 108.02 6.45179 107.934 6.47727C107.864 6.47408 107.778 6.46453 107.709 6.4709C107.639 6.47727 107.57 6.49955 107.536 6.52184C107.51 6.53777 107.518 6.56962 107.544 6.58235C107.579 6.59509 107.657 6.59509 107.709 6.59828C107.717 6.59828 107.743 6.59509 107.752 6.59191C107.916 6.53459 108.107 6.52503 108.349 6.56324Z" fill="#FF7373" fill-opacity="0.3"/>
<path d="M57.9011 5.74803C57.9271 5.70981 57.8838 5.6907 57.8145 5.69389C57.5808 5.70344 57.3558 5.69707 57.122 5.68115C57.0009 5.67478 56.871 5.68433 56.7498 5.69389C56.6286 5.70344 56.5767 5.73529 56.5767 5.77987C56.6633 5.80216 56.7239 5.7735 56.7931 5.76713C56.871 5.76076 56.9403 5.74802 57.0182 5.74165C57.0961 5.73847 57.1913 5.72892 57.2432 5.74165C57.4769 5.80534 57.6933 5.75121 57.9011 5.74803Z" fill="#FF7373" fill-opacity="0.3"/>
<path d="M99.5632 7.91347C99.8835 7.94531 100.16 7.95804 100.437 7.90709C100.55 7.8848 100.654 7.91346 100.758 7.91983C100.792 7.91983 100.853 7.90072 100.853 7.89436C100.853 7.87525 100.827 7.85296 100.792 7.83385C100.784 7.82748 100.732 7.8243 100.706 7.8243C100.663 7.8243 100.611 7.8243 100.567 7.83067C100.325 7.86251 100.083 7.8848 99.8316 7.86251C99.7537 7.85296 99.745 7.85614 99.5632 7.91347Z" fill="#FF7373" fill-opacity="0.3"/>
<path d="M109.466 0.764309C109.526 0.824815 109.587 0.882131 109.648 0.942636C109.656 0.95219 109.691 0.961743 109.717 0.958559C109.743 0.958559 109.777 0.949009 109.786 0.939456C109.838 0.885319 109.899 0.831181 109.933 0.777045C109.968 0.722909 109.838 0.684693 109.708 0.7038C109.665 0.710169 109.622 0.719724 109.587 0.729277C109.544 0.735646 109.518 0.748387 109.466 0.764309Z" fill="#FF7373" fill-opacity="0.3"/>
<path d="M95.7978 0.601901C95.8151 0.678329 95.9622 0.742019 96.1181 0.745203C96.1873 0.745203 96.2652 0.729278 96.3172 0.710171C96.3864 0.684695 96.3518 0.656038 96.2912 0.633746C96.2133 0.605086 96.1354 0.576426 96.0402 0.554135C95.9969 0.544581 95.9103 0.544581 95.867 0.554135C95.8238 0.563688 95.8064 0.589163 95.7978 0.601901Z" fill="#FF7373" fill-opacity="0.3"/>
<path d="M48.2408 5.70344C48.3533 5.71936 48.4745 5.73847 48.6044 5.75757C48.7602 5.70344 48.942 5.6907 49.1584 5.72573C49.2709 5.74483 49.4007 5.74165 49.5219 5.72255C49.4181 5.67796 49.2796 5.66841 49.1324 5.66523C49.0026 5.66523 48.8727 5.66841 48.7515 5.65249C48.5438 5.62701 48.3966 5.65885 48.2408 5.70344Z" fill="#FF7373" fill-opacity="0.3"/>
<path d="M59.6323 5.82763C59.5977 5.78305 59.3986 5.79579 59.4505 5.73847C59.364 5.71618 59.2774 5.68433 59.1562 5.70026C59.0524 5.71299 58.9571 5.72891 58.8619 5.74165C58.8533 5.80215 58.9571 5.82126 59.0697 5.82445C59.2515 5.83082 59.4332 5.82763 59.6323 5.82763Z" fill="#FF7373" fill-opacity="0.3"/>
<path d="M91.2966 8.62998C91.5043 8.66182 91.6601 8.6459 91.816 8.61723C91.9545 8.59176 92.0929 8.56947 92.2661 8.59495C92.3873 8.61405 92.5258 8.58221 92.7335 8.58221C92.4565 8.53763 92.3959 8.52807 92.1276 8.54081C91.8506 8.55673 91.5649 8.56947 91.2966 8.62998Z" fill="#FF7373" fill-opacity="0.3"/>
<path d="M61.8829 7.59502C61.3636 7.60457 60.9394 7.70329 60.3854 7.70966C60.5672 7.74787 60.697 7.7415 60.8009 7.73513C61.0346 7.71921 61.2597 7.69055 61.5021 7.68418C61.6319 7.67781 61.7617 7.64916 61.8829 7.59502Z" fill="#FF7373" fill-opacity="0.3"/>
<path d="M88.3968 8.53125C88.4227 8.55354 88.44 8.57265 88.4747 8.58858C88.4833 8.59494 88.5526 8.5822 88.5872 8.57583C88.6564 8.56628 88.7344 8.54718 88.8036 8.54718C88.994 8.55036 89.1672 8.51533 89.3663 8.53125C89.4268 8.53762 89.5048 8.51215 89.6 8.49941C89.3316 8.45164 89.3316 8.45164 89.2537 8.45801C88.9681 8.48348 88.6997 8.50578 88.3968 8.53125Z" fill="#FF7373" fill-opacity="0.3"/>
<path d="M104.324 1.00633C104.428 1.03817 104.541 1.0732 104.662 1.11142C104.783 1.10505 104.921 1.09549 105.06 1.08594C105.043 1.0732 105.043 1.06365 105.025 1.06046C104.965 1.04454 104.887 1.03499 104.835 1.01588C104.774 0.990407 104.74 0.958566 104.679 0.923537C104.558 0.952197 104.445 0.977668 104.324 1.00633Z" fill="#FF7373" fill-opacity="0.3"/>
<path d="M38.8229 0.88214C38.3814 0.850295 37.9659 0.888507 37.5591 0.856663C37.386 0.843925 37.1869 0.872584 36.9705 0.888507C37.3427 0.913983 38.4507 0.9108 38.8229 0.88214Z" fill="#FF7373" fill-opacity="0.3"/>
<path d="M95.5208 0.305742C95.7718 0.350324 95.9796 0.391724 96.1873 0.426753C96.2219 0.433122 96.2825 0.429939 96.3258 0.420386C96.3604 0.414017 96.4124 0.398096 96.4124 0.382174C96.421 0.369436 96.3864 0.347143 96.3518 0.340774C96.1008 0.305744 95.8497 0.270712 95.5208 0.305742Z" fill="#FF7373" fill-opacity="0.3"/>
<path d="M48.2408 5.70344C48.1369 5.6907 48.0331 5.6716 47.9292 5.66841C47.7474 5.66205 47.557 5.66841 47.3665 5.66841C47.3492 5.71618 47.4531 5.71618 47.505 5.72573C47.6349 5.74484 47.7734 5.75121 47.9119 5.76713C48.0763 5.78305 48.1802 5.76076 48.2408 5.70344Z" fill="#FF7373" fill-opacity="0.3"/>
<path d="M62.9217 7.40396C63.1294 7.42306 63.2593 7.37211 63.4151 7.34981C63.5795 7.32752 63.7353 7.30524 63.8998 7.28294C63.9171 7.2511 63.8652 7.24154 63.7959 7.24791C63.7007 7.25428 63.6142 7.26702 63.5189 7.27339C63.3718 7.28613 63.1121 7.34027 62.9217 7.40396Z" fill="#FF7373" fill-opacity="0.3"/>
<path d="M15.1569 2.31516C15.0271 2.22599 14.7588 2.2228 14.2134 2.30242C14.3779 2.33108 14.5337 2.31834 14.6809 2.31834C14.828 2.31834 14.9838 2.31834 15.1569 2.31516Z" fill="#FF7373" fill-opacity="0.3"/>
<path d="M89.7991 8.47712C89.7991 8.53444 89.9029 8.55036 89.9895 8.54081C90.154 8.51852 90.3357 8.54399 90.5002 8.51852C90.6214 8.49941 90.7772 8.50578 90.9157 8.49304C90.5435 8.45801 90.1713 8.46757 89.7991 8.47712Z" fill="#FF7373" fill-opacity="0.3"/>
<path d="M84.666 8.53444C84.7179 8.55355 84.7525 8.57265 84.8045 8.57902C84.8651 8.58858 84.9256 8.58539 84.9949 8.58858C85.0382 8.58858 85.0901 8.58857 85.142 8.58539C85.3671 8.56947 85.5922 8.55354 85.9038 8.52807C85.6354 8.50578 85.4277 8.50259 85.2632 8.5217C85.0555 8.54399 84.8737 8.49304 84.666 8.53444Z" fill="#FF7373" fill-opacity="0.3"/>
<path d="M33.534 0.96175C33.5859 1.0127 33.6898 1.01907 33.7764 1.0127C33.9408 1.00314 34.1053 0.984037 34.2698 0.964931C34.2871 0.961746 34.3044 0.945826 34.2957 0.936273C34.2871 0.926719 34.2611 0.917168 34.2351 0.913983C34.1745 0.910799 34.1053 0.910799 34.0534 0.913983C33.8889 0.929906 33.7244 0.945828 33.534 0.96175Z" fill="#FF7373" fill-opacity="0.3"/>
<path d="M97.0876 7.77972C97.3992 7.81156 97.7108 7.81475 98.0397 7.77654C97.8839 7.74469 97.7541 7.71921 97.581 7.73514C97.4857 7.74469 97.3646 7.72558 97.252 7.72558C97.1655 7.72558 97.1049 7.73832 97.0876 7.77972Z" fill="#FF7373" fill-opacity="0.3"/>
<path d="M93.6164 8.44209C93.9281 8.51851 94.2397 8.50259 94.6379 8.49622C94.5167 8.46756 94.4561 8.44527 94.3955 8.44209C94.1358 8.42298 93.8934 8.42298 93.6164 8.44209Z" fill="#FF7373" fill-opacity="0.3"/>
<path d="M13.0535 2.3056C12.9236 2.26102 12.7765 2.23873 12.612 2.25465C12.5601 2.26102 12.4908 2.28013 12.4822 2.29924C12.4735 2.31198 12.5514 2.34382 12.5947 2.34382C12.7159 2.35019 12.8457 2.34382 12.9669 2.34064C13.0016 2.34064 13.0275 2.31834 13.0535 2.3056Z" fill="#FF7373" fill-opacity="0.3"/>
<path d="M37.1955 0.363068C36.8147 0.394913 36.4078 0.343958 36.0097 0.439492C36.1308 0.442677 36.2347 0.455421 36.304 0.445867C36.5463 0.410838 36.806 0.41402 37.057 0.410835C37.1176 0.407651 37.1782 0.404467 37.1955 0.363068Z" fill="#FF7373" fill-opacity="0.3"/>
<path d="M15.6936 1.96487C15.4426 1.95531 15.2002 1.94575 14.9492 1.9362C14.9059 1.93302 14.854 1.93302 14.8107 1.93939C14.7934 1.94257 14.7761 1.95531 14.7674 1.96805C14.7674 1.97123 14.7761 1.98079 14.7847 1.98079C15.079 2.00626 15.3734 2.01582 15.659 1.9776C15.6763 1.97442 15.685 1.96805 15.6936 1.96487Z" fill="#FF7373" fill-opacity="0.3"/>
<path d="M115.092 5.9964C115.049 6.01551 115.006 6.02825 115.006 6.04099C115.006 6.06328 115.023 6.08876 115.058 6.10149C115.136 6.13334 115.248 6.13971 115.361 6.12697C115.395 6.12379 115.43 6.10468 115.447 6.09194C115.456 6.08557 115.439 6.06647 115.421 6.06328C115.317 6.04099 115.214 6.02188 115.092 5.9964Z" fill="#FF7373" fill-opacity="0.3"/>
<path d="M87.2109 8.17459C87.4619 8.20326 87.635 8.19052 87.7995 8.19688C87.964 8.20325 88.1371 8.21281 88.3015 8.21917C88.3535 8.18096 88.2756 8.17141 88.2236 8.16504C88.1371 8.15549 88.0332 8.15548 87.9466 8.15548C87.7216 8.15867 87.5052 8.1523 87.2109 8.17459Z" fill="#FF7373" fill-opacity="0.3"/>
<path d="M121.308 2.11453C121.247 2.06994 121.204 2.03491 121.16 2.00307C121.005 1.9967 120.909 2.01581 120.84 2.06676C120.961 2.11134 121.091 2.14 121.308 2.11453Z" fill="#FF7373" fill-opacity="0.3"/>
<path d="M117.594 5.23532C117.836 5.24169 117.888 5.17163 118.053 5.1589C117.923 5.11113 117.923 5.11113 117.655 5.11431C117.637 5.14934 117.62 5.18755 117.594 5.23532Z" fill="#FF7373" fill-opacity="0.3"/>
<path d="M11.3396 2.32153C11.0626 2.27376 11.0366 2.27694 10.5951 2.33745C10.8375 2.36292 10.8375 2.36292 11.3396 2.32153Z" fill="#FF7373" fill-opacity="0.3"/>
<path d="M9.59969 2.23872C9.4785 2.21962 9.37463 2.20051 9.27075 2.19414C9.2015 2.19096 9.12359 2.2037 9.05434 2.21643C9.01972 2.2228 9.00241 2.2451 9.00241 2.26102C9.00241 2.27057 9.07165 2.28331 9.10628 2.28012C9.26209 2.26738 9.41791 2.25465 9.59969 2.23872Z" fill="#FF7373" fill-opacity="0.3"/>
<path d="M78.3643 6.31804C78.1219 6.25754 77.8536 6.23843 77.5246 6.22888C77.8103 6.30212 78.0959 6.29894 78.3643 6.31804Z" fill="#FF7373" fill-opacity="0.3"/>
<path d="M11.6772 2.79601C11.7551 2.82149 11.7897 2.84059 11.8157 2.83741C11.9974 2.82786 12.1792 2.81512 12.361 2.80239C12.3783 2.80239 12.4043 2.78328 12.3956 2.77691C12.387 2.76735 12.3523 2.75461 12.335 2.7578C12.1359 2.77054 11.9369 2.78009 11.6772 2.79601Z" fill="#FF7373" fill-opacity="0.3"/>
<path d="M88.0851 6.51548C88.0938 6.4709 88.1025 6.42632 88.1198 6.38492C88.1371 6.35944 88.1284 6.33715 88.0592 6.3276C88.0246 6.32123 87.964 6.32441 87.9293 6.33396C87.8947 6.34352 87.8687 6.36581 87.8774 6.37854C87.912 6.42631 87.964 6.47408 88.0072 6.52185C88.0505 6.51866 88.0678 6.51548 88.0851 6.51548Z" fill="#FF7373" fill-opacity="0.3"/>
<path d="M105.796 6.73202C105.917 6.79253 106.064 6.818 106.246 6.818C106.272 6.818 106.306 6.80845 106.315 6.7989C106.324 6.78935 106.315 6.77342 106.298 6.76706C106.159 6.72566 106.003 6.70336 105.796 6.73202Z" fill="#FF7373" fill-opacity="0.3"/>
<path d="M72.4435 8.32745C72.5646 8.37841 72.6858 8.39114 72.8243 8.39114C72.9628 8.39433 73.0667 8.37522 73.0321 8.34974C72.9888 8.3179 72.9109 8.32108 72.833 8.32108C72.7204 8.32108 72.5993 8.32427 72.4435 8.32745Z" fill="#FF7373" fill-opacity="0.3"/>
<path d="M63.1035 5.24488C62.8697 5.1589 62.662 5.20029 62.4629 5.23532C62.6706 5.26398 62.6706 5.26398 63.1035 5.24488Z" fill="#FF7373" fill-opacity="0.3"/>
<path d="M34.2351 5.70663C34.3563 5.7735 34.5295 5.78305 34.7459 5.80534C34.5554 5.68433 34.5554 5.68433 34.2351 5.70663Z" fill="#FF7373" fill-opacity="0.3"/>
<path d="M12.7159 2.45527C12.9669 2.45527 13.1314 2.45527 13.3132 2.45527C13.0535 2.37566 13.0102 2.37566 12.7159 2.45527Z" fill="#FF7373" fill-opacity="0.3"/>
<path d="M91.6515 6.71291C91.4091 6.70336 91.1667 6.69381 90.9244 6.68426C90.9157 6.68426 90.8897 6.69381 90.8984 6.69699C90.9071 6.70655 90.9157 6.72247 90.933 6.72566C91.1754 6.75432 91.4091 6.73521 91.6515 6.71291Z" fill="#FF7373" fill-opacity="0.3"/>
<path d="M83.7917 7.20333C84.0081 7.19696 84.2158 7.23517 84.3976 7.14919C84.1639 7.13009 83.9735 7.1269 83.7917 7.20333Z" fill="#FF7373" fill-opacity="0.3"/>
<path d="M57.5895 8.16823C57.3904 8.20644 57.1826 8.24465 56.9662 8.28286C57.0095 8.29242 57.0355 8.30516 57.0614 8.30197C57.2779 8.28605 57.4683 8.25102 57.6328 8.19688C57.6414 8.1937 57.6501 8.18733 57.6414 8.18096C57.6328 8.18096 57.6154 8.17778 57.5895 8.16823Z" fill="#FF7373" fill-opacity="0.3"/>
<path d="M96.1094 8.42935C96.1613 8.39114 96.196 8.36566 96.2306 8.34337C96.1008 8.30834 95.9882 8.32108 95.867 8.33382C95.8411 8.337 95.8238 8.34974 95.8151 8.3593C95.8151 8.36885 95.8324 8.38477 95.8497 8.38795C95.919 8.40388 95.9882 8.41343 96.1094 8.42935Z" fill="#FF7373" fill-opacity="0.3"/>
<path d="M29.6474 1.04773C29.4136 1.01907 29.1799 1.02863 28.9549 1.02544C28.9202 1.02544 28.877 1.035 28.7644 1.04773C29.0587 1.06366 29.2751 1.0541 29.4915 1.0541C29.5435 1.05729 29.5954 1.05092 29.6474 1.04773Z" fill="#FF7373" fill-opacity="0.3"/>
<path d="M54.5944 0.0255099C54.7156 0.0286944 54.8368 0.0350648 54.9667 0.0350648C55.0878 0.0350648 55.1917 0.0828321 55.3475 0.0509873C55.1052 -0.0222557 54.8541 -0.0031504 54.5944 0.0255099Z" fill="#FF7373" fill-opacity="0.3"/>
<path d="M10.0671 2.70366C10.2749 2.71958 10.448 2.71321 10.6557 2.70366C10.448 2.63042 10.2749 2.63678 10.0671 2.70366Z" fill="#FF7373" fill-opacity="0.3"/>
<path d="M89.4615 6.64922C89.5394 6.60146 89.4874 6.57599 89.4095 6.55051C89.323 6.53459 89.2624 6.55687 89.1931 6.56961C89.1325 6.58235 89.1412 6.61739 89.2018 6.62375C89.297 6.63649 89.3836 6.64286 89.4615 6.64922Z" fill="#FF7373" fill-opacity="0.3"/>
<path d="M75.5683 7.30842C75.802 7.32116 76.0444 7.33071 76.2781 7.35619C76.0704 7.2702 75.8194 7.29568 75.5683 7.30842Z" fill="#FF7373" fill-opacity="0.3"/>
<path d="M96.447 7.85296C96.6634 7.91028 96.7759 7.92939 96.9231 7.92939C96.9491 7.92939 96.9923 7.91347 96.9923 7.91028C96.9837 7.89436 96.9577 7.87843 96.9317 7.86888C96.9144 7.86251 96.8711 7.8657 96.8365 7.86251C96.724 7.85933 96.6028 7.85614 96.447 7.85296Z" fill="#FF7373" fill-opacity="0.3"/>
<path d="M13.1574 2.64634C13.443 2.72276 13.443 2.72276 13.6335 2.6527C13.4776 2.63041 13.3305 2.6336 13.1574 2.64634Z" fill="#FF7373" fill-opacity="0.3"/>
<path d="M10.6644 3.34374C10.7856 3.34374 10.8895 3.34374 11.002 3.34056C11.0193 3.34056 11.0366 3.32463 11.0539 3.31508C11.0626 3.3119 11.0539 3.30234 11.0453 3.29916C10.9327 3.26413 10.7856 3.27687 10.6644 3.34374Z" fill="#FF7373" fill-opacity="0.3"/>
<path d="M57.1653 5.2608C57.2865 5.27354 57.399 5.28946 57.5202 5.29582C57.5462 5.29901 57.5895 5.27672 57.6241 5.26717C57.5981 5.25443 57.5635 5.23532 57.5375 5.23532C57.4163 5.23214 57.2865 5.23532 57.1653 5.23532C57.1653 5.24169 57.1653 5.25125 57.1653 5.2608Z" fill="#FF7373" fill-opacity="0.3"/>
<path d="M120.078 5.28628C120.243 5.35315 120.338 5.36589 120.477 5.34041C120.485 5.33723 120.494 5.31811 120.477 5.31175C120.442 5.29901 120.399 5.28946 120.355 5.28628C120.277 5.28309 120.182 5.28628 120.078 5.28628Z" fill="#FF7373" fill-opacity="0.3"/>
<path d="M121.585 6.99952C121.74 7.04728 121.784 7.04092 122 6.94538C121.844 6.93264 121.836 6.93264 121.585 6.99952Z" fill="#FF7373" fill-opacity="0.3"/>
<path d="M40.4156 0.837554C40.2165 0.837554 40.0261 0.837554 39.827 0.837554C39.8184 0.843923 39.8184 0.850291 39.8097 0.853475C40.0088 0.878951 40.2079 0.86303 40.4156 0.837554Z" fill="#FF7373" fill-opacity="0.3"/>
<path d="M105.501 1.10186C105.493 1.1146 105.484 1.12734 105.493 1.13371C105.545 1.16237 105.605 1.19103 105.666 1.21651C105.674 1.22288 105.726 1.21969 105.744 1.21651C105.761 1.21014 105.778 1.19421 105.77 1.18784C105.718 1.14326 105.649 1.10505 105.501 1.10186Z" fill="#FF7373" fill-opacity="0.3"/>
<path d="M117.326 1.7101C117.499 1.7101 117.577 1.71328 117.646 1.70691C117.698 1.70373 117.75 1.68781 117.793 1.67825C117.802 1.67825 117.802 1.66552 117.793 1.66233C117.733 1.63686 117.663 1.63685 117.585 1.64959C117.525 1.66233 117.473 1.67825 117.326 1.7101Z" fill="#FF7373" fill-opacity="0.3"/>
<path d="M118.053 1.98078C118.122 1.96486 118.148 1.92664 118.105 1.88843C118.096 1.87887 118.061 1.87251 118.035 1.86932C118.01 1.86932 117.966 1.87888 117.966 1.88525C117.958 1.91391 117.966 1.94256 117.975 1.96804C117.975 1.97441 118.027 1.97441 118.053 1.98078Z" fill="#FF7373" fill-opacity="0.3"/>
<path d="M8.57825 2.71322C8.66482 2.71322 8.76003 2.71321 8.8466 2.7164C8.93316 2.71958 9.01972 2.72277 9.14956 2.72914C9.11493 2.71003 9.09762 2.69093 9.07165 2.69093C8.90719 2.675 8.74272 2.68137 8.57825 2.71322Z" fill="#FF7373" fill-opacity="0.3"/>
<path d="M41.9132 5.34359C42.1122 5.35951 42.2421 5.3627 42.3287 5.3022C42.1728 5.2799 42.0517 5.2799 41.9132 5.34359Z" fill="#FF7373" fill-opacity="0.3"/>
<path d="M75.2827 7.29886C75.0836 7.29886 74.8931 7.29886 74.6941 7.29886C74.8931 7.33389 75.1009 7.32434 75.2827 7.29886Z" fill="#FF7373" fill-opacity="0.3"/>
<path d="M119.394 7.38803C119.169 7.34026 119.022 7.40077 118.84 7.41669C118.884 7.45172 118.97 7.44217 119.022 7.4358C119.143 7.42624 119.256 7.40714 119.394 7.38803Z" fill="#FF7373" fill-opacity="0.3"/>
<path d="M92.9412 8.50896C92.9845 8.54081 93.0711 8.54081 93.149 8.53444C93.1836 8.53126 93.2182 8.51533 93.2529 8.50578C93.2615 8.50259 93.2529 8.49304 93.2442 8.48985C93.175 8.46119 93.0018 8.46438 92.9499 8.49304C92.9326 8.49623 92.9412 8.50578 92.9412 8.50896Z" fill="#FF7373" fill-opacity="0.3"/>
<path d="M33.4994 5.42958C33.3436 5.38181 33.205 5.35952 33.006 5.37862C33.0406 5.39455 33.0665 5.4041 33.0925 5.41047C33.205 5.43913 33.3262 5.4455 33.4994 5.42958Z" fill="#FF7373" fill-opacity="0.3"/>
<path d="M96.0142 6.86896C96.0488 6.82119 96.0834 6.78935 96.1094 6.7575C96.0661 6.73203 96.0055 6.72884 95.9449 6.74158C95.8064 6.76705 95.6679 6.79253 95.5381 6.82437C95.4862 6.83711 95.4775 6.86258 95.5381 6.88806C95.6766 6.87851 95.8238 6.87533 96.0142 6.86896Z" fill="#FF7373" fill-opacity="0.3"/>
</svg>
