<svg width="33" height="32" viewBox="0 0 33 32" fill="none" xmlns="http://www.w3.org/2000/svg">
<path d="M27.6046 21.0526C23.2914 18.5263 23.0218 18.4651 20.7035 17.6842C23.1865 16.0148 25.8793 12.4224 25.8793 9.26316C25.8793 4.16272 21.6151 0 16.3902 0C11.1654 0 6.91463 4.14956 6.91463 9.25C6.91463 12.4093 9.59396 16.0148 12.077 17.6842C9.7587 18.4651 7.7638 19.3684 5.17587 21.0526C2.08016 24.0747 0 27.7262 0 32H2.58793C2.58793 24.5561 8.76475 19.3684 16.3902 19.3684C24.0157 19.3684 30.1926 24.5561 30.1926 32H32.7805C32.7805 27.7262 30.7003 24.0747 27.6046 21.0526ZM16.3902 16.8726C12.5775 16.8726 8.62644 12.972 8.62644 9.25C8.62644 5.528 12.5775 1.68421 16.3902 1.68421C20.203 1.68421 24.154 5.54116 24.154 9.26316C24.154 12.9852 20.203 16.8726 16.3902 16.8726Z" fill="white"/>
</svg>
