<svg width="58" height="60" viewBox="0 0 58 60" fill="none" xmlns="http://www.w3.org/2000/svg">
<path d="M58 44.6343L53.2472 40.9957C47.0101 36.2262 42.2165 30.0307 39.3839 23.0977L39.3567 23.0117V22.8888C39.3567 20.6884 39.5201 18.3897 39.8469 16.0787L39.8878 15.7714L50.5236 12.5753C50.5236 12.5753 50.5236 12.5753 50.5236 12.563L43.4557 2.08974L35.7614 0.0368777L33.9094 0.0122926V0.405655C33.9094 2.82729 31.7985 4.86786 29.1158 4.91703C26.3649 4.9662 24.1042 2.96251 24.1042 0.491702V0H22.5518L14.5579 2.08974L7.49002 12.563V12.5753L18.1259 15.7714L18.1667 16.0787C18.4935 18.3897 18.657 20.6884 18.657 22.8888V23.0117L18.6297 23.0977C15.7971 30.043 11.0035 36.2262 4.76638 40.9957L0 44.6343C0 44.6343 0 44.6343 0 44.6466L0.23151 45.0031C1.75675 47.3755 4.69829 48.8138 7.74877 48.6785L8.34797 48.654L8.32073 49.1948C8.15731 51.9484 9.76427 54.6159 12.3926 55.9803C15.0209 57.3448 18.371 57.271 20.9448 55.7714L21.4487 55.4763H21.4623L21.7347 55.9557C23.1237 58.4143 25.9836 60 29.0204 60C32.0573 60 34.9171 58.4143 36.3062 55.9557L36.5785 55.4763C36.5785 55.4763 36.5785 55.4763 36.5922 55.4763L37.096 55.7714C39.6563 57.271 43.0063 57.3571 45.6483 55.9803C48.2766 54.6036 49.8699 51.9484 49.7201 49.1948L49.6929 48.654L50.2921 48.6785C53.3426 48.8261 56.2977 47.3755 57.8093 45.0031L58 44.6343ZM43.2242 3.66318C43.2378 3.66318 43.2378 3.66318 43.2242 3.66318L48.8758 12.0221V12.0344L40.0512 14.6896H40.0376L40.1874 13.8906C40.773 10.7314 41.6718 7.62139 42.8429 4.64659L43.2242 3.66318ZM29.8239 5.87584L30.5729 5.69146C32.602 5.18746 34.1954 3.74923 34.7537 1.91764L34.958 1.24155C34.958 1.24155 34.958 1.24155 34.9716 1.24155L35.598 1.6595C36.5922 2.29871 37.1777 3.33128 37.1777 4.42532C37.1777 6.31838 35.4618 7.86724 33.3646 7.86724C32.1526 7.86724 31.0087 7.33866 30.2869 6.4536L29.8239 5.87584ZM22.402 1.6472L23.0284 1.22926H23.042L23.2463 1.90535C23.8046 3.73694 25.398 5.17517 27.4271 5.67916L28.1761 5.86355C28.1761 5.86355 28.1761 5.86355 28.1761 5.87584L27.7131 6.4413C27.0049 7.33866 25.8474 7.86724 24.649 7.86724C22.5518 7.86724 20.8359 6.31838 20.8359 4.42532C20.8359 3.33128 21.4215 2.29871 22.402 1.6472ZM17.9488 14.6773L9.12421 12.0221C9.12421 12.0221 9.12421 12.0221 9.12421 12.0098L14.7622 3.65089H14.7758L15.1571 4.60971C16.3282 7.5968 17.227 10.7068 17.8126 13.8537L17.9488 14.6773ZM15.7835 3.33128L15.5792 2.83958C15.5792 2.83958 15.5792 2.83958 15.5792 2.82729L20.8086 1.42594C20.8086 1.42594 20.8223 1.42594 20.8223 1.43823L20.2639 2.43393C19.9098 3.06085 19.7328 3.72465 19.7328 4.41303C19.7328 6.85925 21.9253 8.83835 24.6354 8.83835C26.1606 8.83835 27.6314 8.17455 28.5574 7.04364L28.9932 6.51506H29.0068L29.4426 7.04364C30.3686 8.18685 31.8258 8.85065 33.3646 8.85065C36.0747 8.85065 38.2672 6.87154 38.2672 4.42532C38.2672 3.74923 38.0902 3.08543 37.7361 2.45851L37.1777 1.46281C37.1777 1.46281 37.1777 1.45052 37.1914 1.45052L42.4208 2.85187C42.4208 2.85187 42.4208 2.85187 42.4208 2.86417L42.2165 3.35587C40.3372 7.86724 39.1115 12.5507 38.5804 17.2833L38.5259 17.7259L38.4306 18.697L38.3898 19.2133C38.3081 20.2704 38.2672 21.2293 38.2536 22.1389L38.2672 22.6183H19.7464L19.7328 22.1389C19.7192 21.2415 19.6783 20.2827 19.5966 19.2133L19.5558 18.697L19.4741 17.7013L19.4196 17.2588C18.8885 12.5384 17.6764 7.85495 15.7835 3.33128ZM56.2841 45.2243C54.5818 47.1911 51.7492 48.0885 49.0801 47.523L48.2357 47.3387C48.2357 47.3387 48.2221 47.3387 48.2221 47.351L48.4264 48.1131C49.1345 50.8297 47.7591 53.7185 45.0763 55.1199C42.3935 56.5212 38.9345 56.1524 36.6875 54.2348L36.0474 53.6939H36.0338L35.7887 54.4438C34.9035 57.1235 32.1118 58.992 29.0068 58.992C25.9019 58.992 23.1101 57.1235 22.2249 54.4438L21.9798 53.6939C21.9798 53.6939 21.9798 53.6939 21.9662 53.6939L21.3261 54.2348C19.0655 56.1524 15.6201 56.5212 12.9373 55.1199C10.2545 53.7185 8.87908 50.842 9.58723 48.1131L9.7915 47.351C9.7915 47.351 9.7915 47.3387 9.77788 47.3387L8.93355 47.523C6.25076 48.0885 3.41817 47.1912 1.7159 45.2366L1.40268 44.8679C1.40268 44.8679 1.40268 44.8679 1.40268 44.8556L5.47452 41.7455C11.6844 36.9883 16.5189 30.8297 19.4332 23.9213L19.5694 23.614H38.4442L38.5804 23.9213C41.5083 30.8297 46.3292 37.0006 52.5391 41.7455L56.6109 44.8556C56.6109 44.8556 56.6109 44.8556 56.6109 44.8679L56.2841 45.2243Z" fill="#303030"/>
</svg>
