<svg width="19" height="19" viewBox="0 0 19 19" fill="none" xmlns="http://www.w3.org/2000/svg">
<g opacity="0.6">
<path d="M18.1925 4.2275C17.6771 3.31075 17.1178 3.14213 15.979 3.078C14.8414 3.00081 11.9807 2.96875 9.50237 2.96875C7.01931 2.96875 4.15744 3.00081 3.021 3.07681C1.88456 3.14213 1.32406 3.30956 0.803937 4.2275C0.273125 5.14306 0 6.72006 0 9.49644C0 9.49881 0 9.5 0 9.5C0 9.50238 0 9.50356 0 9.50356V9.50594C0 12.2704 0.273125 13.8593 0.803937 14.7654C1.32406 15.6821 1.88337 15.8484 3.01981 15.9256C4.15744 15.9921 7.01931 16.0312 9.50237 16.0312C11.9807 16.0312 14.8414 15.9921 15.9802 15.9267C17.119 15.8496 17.6783 15.6833 18.1937 14.7666C18.7292 13.8605 19 12.2716 19 9.50712C19 9.50712 19 9.50356 19 9.50119C19 9.50119 19 9.49881 19 9.49763C19 6.72006 18.7292 5.14306 18.1925 4.2275ZM7.125 13.0625V5.9375L13.0625 9.5L7.125 13.0625Z" fill="#303030"/>
</g>
</svg>
